<svg width="20" height="20" viewBox="0 0 20 20" fill="none" xmlns="http://www.w3.org/2000/svg">
<path d="M10 20C15.5228 20 20 15.5228 20 10C20 4.47715 15.5228 0 10 0C4.47715 0 0 4.47715 0 10C0 15.5228 4.47715 20 10 20Z" fill="#F0F0F0"/>
<path d="M2.06721 3.9118C1.2817 4.9338 0.689396 6.11173 0.344513 7.39137H5.54678L2.06721 3.9118Z" fill="#0052B4"/>
<path d="M19.6555 7.39134C19.3106 6.11173 18.7183 4.9338 17.9328 3.9118L14.4533 7.39134H19.6555Z" fill="#0052B4"/>
<path d="M0.344513 12.6088C0.689435 13.8884 1.28174 15.0663 2.06721 16.0883L5.54666 12.6088H0.344513Z" fill="#0052B4"/>
<path d="M16.0882 2.06722C15.0662 1.28171 13.8884 0.689404 12.6087 0.344482V5.54671L16.0882 2.06722Z" fill="#0052B4"/>
<path d="M3.9118 17.9328C4.9338 18.7183 6.11173 19.3106 7.39134 19.6555V14.4533L3.9118 17.9328Z" fill="#0052B4"/>
<path d="M7.3913 0.344482C6.11169 0.689404 4.93376 1.28171 3.9118 2.06718L7.3913 5.54667V0.344482Z" fill="#0052B4"/>
<path d="M12.6087 19.6555C13.8883 19.3106 15.0663 18.7183 16.0882 17.9328L12.6087 14.4533V19.6555Z" fill="#0052B4"/>
<path d="M14.4533 12.6088L17.9328 16.0883C18.7183 15.0663 19.3106 13.8884 19.6555 12.6088H14.4533Z" fill="#0052B4"/>
<path d="M19.9154 8.69566H11.3044H11.3044V0.0846484C10.8774 0.0290625 10.4421 0 10 0C9.55785 0 9.12262 0.0290625 8.69566 0.0846484V8.69559V8.69563H0.0846484C0.0290625 9.12262 0 9.55793 0 10C0 10.4421 0.0290625 10.8774 0.0846484 11.3043H8.69559H8.69563V19.9154C9.12262 19.9709 9.55785 20 10 20C10.4421 20 10.8774 19.971 11.3043 19.9154V11.3044V11.3044H19.9154C19.9709 10.8774 20 10.4421 20 10C20 9.55793 19.9709 9.12262 19.9154 8.69566Z" fill="#D80027"/>
<path d="M12.6087 12.6087L17.0711 17.0711C17.2763 16.8659 17.4721 16.6514 17.6589 16.4291L13.8385 12.6087H12.6087V12.6087Z" fill="#D80027"/>
<path d="M7.3913 12.6088H7.39122L2.92892 17.0711C3.13408 17.2763 3.34857 17.4721 3.57092 17.6589L7.3913 13.8384V12.6088Z" fill="#D80027"/>
<path d="M7.39131 7.39136V7.39128L2.92897 2.92889C2.72373 3.13405 2.52795 3.34854 2.34116 3.57089L6.16159 7.39132H7.39131V7.39136Z" fill="#D80027"/>
<path d="M12.6087 7.39138L17.0711 2.92896C16.866 2.72373 16.6515 2.52794 16.4291 2.34119L12.6087 6.16162V7.39138Z" fill="#D80027"/>
</svg>
