<svg width="67" height="85" viewBox="0 0 67 85" fill="none" xmlns="http://www.w3.org/2000/svg">
<path d="M35.5289 84.1897H31.0979C28.2177 82.8604 27.313 79.3895 27.2207 77.8201H39.4061C39.4061 81.1434 36.8213 83.4512 35.5289 84.1897Z" fill="#FC5C7E"/>
<circle cx="33.3134" cy="33.5097" r="4.70798" fill="#FC5C7E"/>
<path d="M33.3134 8.11483C34.0041 8.11483 34.5641 7.55485 34.5641 6.86414V1.25069C34.5641 0.559977 34.0041 0 33.3134 0C32.6226 0 32.0627 0.559977 32.0627 1.25069V6.86414C32.0627 7.55485 32.6226 8.11483 33.3134 8.11483Z" fill="#00163A"/>
<path d="M55.1006 9.75726L51.1312 13.7266C50.6428 14.2151 50.6428 15.007 51.1312 15.4953C51.3755 15.7394 51.6957 15.8616 52.0157 15.8616C52.3357 15.8616 52.6559 15.7396 52.9002 15.4953L56.8696 11.5259C57.358 11.0375 57.358 10.2455 56.8696 9.75726C56.381 9.26898 55.5892 9.26898 55.1006 9.75726Z" fill="#00163A"/>
<path d="M13.7266 51.1313L9.7572 55.1007C9.26876 55.5891 9.26876 56.3811 9.7572 56.8694C10.0013 57.1135 10.3215 57.2357 10.6415 57.2357C10.9615 57.2357 11.2817 57.1137 11.5258 56.8694L15.4952 52.9C15.9837 52.4116 15.9837 51.6196 15.4952 51.1313C15.0069 50.6429 14.215 50.6429 13.7266 51.1313Z" fill="#00163A"/>
<path d="M13.7266 15.4952C13.9707 15.7394 14.2909 15.8616 14.6109 15.8616C14.9309 15.8616 15.2511 15.7395 15.4952 15.4952C15.9837 15.0068 15.9837 14.2149 15.4952 13.7266L11.5258 9.75723C11.0374 9.26879 10.2455 9.26879 9.7572 9.75723C9.26876 10.2457 9.26876 11.0376 9.7572 11.5259L13.7266 15.4952Z" fill="#00163A"/>
<path d="M52.9003 51.1313C52.4117 50.6429 51.6199 50.6429 51.1315 51.1313C50.643 51.6198 50.643 52.4117 51.1315 52.9L55.1008 56.8694C55.3451 57.1135 55.6653 57.2357 55.9853 57.2357C56.3053 57.2357 56.6255 57.1137 56.8698 56.8694C57.3583 56.3809 57.3583 55.589 56.8698 55.1007L52.9003 51.1313Z" fill="#00163A"/>
<path d="M6.8643 32.0626H1.25069C0.559977 32.0626 0 32.6226 0 33.3133C0 34.004 0.559977 34.564 1.25069 34.564H6.86414C7.55485 34.564 8.11483 34.004 8.11483 33.3133C8.115 32.6226 7.55502 32.0626 6.8643 32.0626Z" fill="#00163A"/>
<path d="M65.3761 32.0626H59.7627C59.0718 32.0626 58.512 32.6226 58.512 33.3133C58.512 34.004 59.0718 34.564 59.7627 34.564H65.3761C66.067 34.564 66.6268 34.004 66.6268 33.3133C66.6268 32.6226 66.067 32.0626 65.3761 32.0626Z" fill="#00163A"/>
<path d="M43.3681 67.5708C44.0589 67.5708 44.6188 67.0108 44.6188 66.3201C44.6188 65.6294 44.0589 65.0694 43.3681 65.0694H42.9161V60.8421L42.94 60.6998C43.1953 59.173 43.6537 57.6786 44.3026 56.2585C44.5896 55.6302 44.3128 54.8883 43.6846 54.6013C43.0562 54.3141 42.3141 54.5909 42.0273 55.2193C41.4011 56.5902 40.9322 58.0228 40.6255 59.4876H25.9626C25.0853 55.2241 22.8839 51.3438 19.7074 48.4954C15.955 45.1305 13.5896 40.5315 13.0469 35.5457C12.9722 34.859 12.3554 34.3632 11.6682 34.4376C10.9814 34.5123 10.4853 35.1296 10.5602 35.8164C11.1697 41.4161 13.8252 46.5803 18.0375 50.3576C20.9798 52.996 22.9688 56.6532 23.6381 60.6551L23.6695 60.8422V65.0694H23.2592C22.5685 65.0694 22.0086 65.6294 22.0086 66.3201C22.0086 67.0108 22.5685 67.5708 23.2592 67.5708H23.6695V70.6513H23.2592C22.5685 70.6513 22.0086 71.2113 22.0086 71.902C22.0086 72.5927 22.5685 73.1527 23.2592 73.1527H23.6695V75.2972C23.6695 76.7774 24.6117 78.0383 25.9262 78.5214C26.1082 81.1318 27.6382 83.4341 30.0108 84.6129C30.1896 84.7018 30.3794 84.7438 30.5663 84.7438C31.0262 84.7438 31.4688 84.4892 31.6874 84.0493C31.9948 83.4306 31.7424 82.68 31.1238 82.3727C29.674 81.6523 28.7011 80.2977 28.4658 78.7347H38.1201C37.885 80.2977 36.9121 81.6523 35.4623 82.3725C34.8437 82.6798 34.5914 83.4306 34.8987 84.0491C35.1172 84.4888 35.5599 84.7435 36.0198 84.7435C36.2068 84.7435 36.3967 84.7015 36.5753 84.6126C38.9479 83.4338 40.4778 81.1315 40.6597 78.5212C41.9745 78.0381 42.9165 76.7772 42.9165 75.2971V73.1526H43.3684C44.0593 73.1526 44.6191 72.5926 44.6191 71.9019C44.6191 71.2111 44.0593 70.6512 43.3684 70.6512H42.9165V67.5708H43.3681ZM26.1704 61.9889H40.4146V65.0694H26.1704V61.9889ZM40.4148 75.2971C40.4148 75.8132 39.9949 76.2331 39.4787 76.2331H27.1065C26.5904 76.2331 26.1705 75.8132 26.1705 75.2971V73.1526H40.4148V75.2971ZM40.4148 70.6512H26.1705V67.5708H40.4148V70.6512Z" fill="#00163A"/>
<path d="M33.3135 39.7283C36.8508 39.7283 39.7285 36.8506 39.7285 33.3133C39.7285 29.776 36.8508 26.8982 33.3135 26.8982C29.7762 26.8982 26.8984 29.776 26.8984 33.3133C26.8984 36.8506 29.7762 39.7283 33.3135 39.7283ZM33.3135 29.3996C35.4714 29.3996 37.2272 31.1552 37.2272 33.3133C37.2272 35.4713 35.4715 37.2269 33.3135 37.2269C31.1555 37.2269 29.3998 35.4713 29.3998 33.3133C29.3998 31.1552 31.1555 29.3996 33.3135 29.3996Z" fill="#00163A"/>
<path d="M19.531 29.4128C18.3816 29.4128 17.4465 30.3478 17.4465 31.4973V35.1293C17.4465 36.2788 18.3816 37.2138 19.531 37.2138H22.0274C22.1833 37.6645 22.3663 38.1058 22.5755 38.5352L20.8097 40.301C19.9969 41.1138 19.9969 42.4362 20.8097 43.2488L23.3778 45.8169C24.1906 46.6297 25.513 46.6297 26.3258 45.8169L28.0916 44.0513C28.521 44.2605 28.9623 44.4435 29.413 44.5994V47.0958C29.413 48.2452 30.348 49.1803 31.4975 49.1803H35.1293C36.2788 49.1803 37.2138 48.2452 37.2138 47.0958V44.5994C37.6646 44.4435 38.1058 44.2605 38.5352 44.0513L40.301 45.8169C40.6946 46.2106 41.2182 46.4276 41.775 46.4276C42.3318 46.4276 42.8553 46.2108 43.2492 45.8171L45.8173 43.2488C46.6297 42.436 46.6297 41.1138 45.8173 40.301L44.0514 38.5352C44.2607 38.1058 44.4438 37.6645 44.5994 37.2138H47.096C48.2454 37.2138 49.1805 36.2788 49.1805 35.1293V31.4973C49.1805 30.3478 48.2454 29.4128 47.096 29.4128H44.5994C44.4437 28.9621 44.2607 28.521 44.0514 28.0914L45.8173 26.3256C46.6297 25.5128 46.6297 24.1906 45.8173 23.3778L43.249 20.8095C42.8553 20.416 42.3318 20.1992 41.775 20.1992C41.2182 20.1992 40.6948 20.416 40.301 20.8097L38.5352 22.5755C38.1058 22.3662 37.6646 22.1831 37.2138 22.0274V19.531C37.2138 18.3815 36.2788 17.4465 35.1293 17.4465H31.4975C30.348 17.4465 29.413 18.3815 29.413 19.531V22.0274C28.9623 22.1831 28.521 22.3662 28.0916 22.5755L26.3258 20.8097C25.513 19.9969 24.1906 19.9969 23.3778 20.8097L20.8097 23.3778C19.9969 24.1906 19.9969 25.513 20.8097 26.3258L22.5755 28.0916C22.3663 28.521 22.1832 28.9622 22.0272 29.413H19.531V29.4128ZM25.0021 26.9805L22.8732 24.8518L24.8518 22.8732L26.9805 25.002C27.385 25.4062 28.0116 25.485 28.5035 25.193C29.2763 24.7342 30.1071 24.3895 30.9729 24.1687C31.5268 24.0275 31.9144 23.5285 31.9144 22.9567V19.9477H34.7124V22.9567C34.7124 23.5284 35.1 24.0273 35.6541 24.1687C36.5198 24.3895 37.3507 24.734 38.1235 25.193C38.6153 25.4851 39.2421 25.4061 39.6465 25.002L41.7752 22.8732L43.7538 24.8518L41.6249 26.9806C41.2207 27.3848 41.142 28.012 41.434 28.5036C41.8928 29.2762 42.2373 30.107 42.4581 30.9727C42.5993 31.5266 43.0983 31.9144 43.6701 31.9144H46.6792V34.7126H43.6701C43.0983 34.7126 42.5995 35.1003 42.4581 35.6543C42.2373 36.5201 41.8928 37.3507 41.434 38.1233C41.142 38.6149 41.2207 39.2419 41.6249 39.6463L43.7538 41.7752L41.7752 43.7538L39.6465 41.6251C39.2419 41.2207 38.6151 41.1418 38.1235 41.434C37.3509 41.8927 36.5201 42.2372 35.6541 42.4582C35.1002 42.5994 34.7124 43.0984 34.7124 43.67V46.679H31.9144V43.67C31.9144 43.0984 31.5268 42.5994 30.9729 42.4582C30.1071 42.2372 29.2761 41.8926 28.5035 41.434C28.0117 41.142 27.385 41.2208 26.9805 41.6251L24.8518 43.7538L22.8732 41.7752L25.0019 39.6463C25.4063 39.2421 25.4848 38.6149 25.193 38.1233C24.7342 37.3509 24.3897 36.5201 24.1686 35.6541C24.0273 35.1001 23.5284 34.7126 22.9568 34.7126H19.9478V31.9144H22.9568C23.5284 31.9144 24.0273 31.5268 24.1686 30.9728C24.3896 30.107 24.7342 29.2761 25.193 28.5035C25.485 28.0117 25.4063 27.3847 25.0021 26.9805Z" fill="#00163A"/>
<path d="M49.5937 17.2242C45.3355 12.916 39.657 10.5017 33.6041 10.4263C27.9947 10.3589 22.5553 12.3849 18.2798 16.1378C14.0429 19.8569 11.3189 24.9319 10.6095 30.4279C10.5212 31.1129 11.0049 31.74 11.69 31.8283C12.3745 31.9167 13.002 31.433 13.0904 30.7479C13.7218 25.8559 16.1508 21.3349 19.9299 18.0177C23.7401 14.673 28.5908 12.8627 33.5728 12.9274C38.9638 12.9946 44.0216 15.1449 47.8143 18.9824C51.6104 22.8232 53.7009 27.9127 53.7009 33.3132C53.7009 39.0427 51.2679 44.5412 47.0261 48.3987C46.3729 48.9928 45.7515 49.632 45.1794 50.2989C44.7296 50.8232 44.7898 51.6126 45.3141 52.0625C45.5499 52.265 45.8396 52.3642 46.1279 52.3642C46.4801 52.3642 46.8303 52.2163 47.0776 51.928C47.5829 51.3391 48.1318 50.7743 48.709 50.2494C53.4713 45.9186 56.2025 39.7457 56.2025 33.3132C56.2023 27.2501 53.8553 21.5363 49.5937 17.2242Z" fill="#00163A"/>
</svg>
