<svg width="79" height="85" viewBox="0 0 79 85" fill="none" xmlns="http://www.w3.org/2000/svg">
<path d="M54.828 53.7264H45.9659V39.8794C40.4271 38.3285 37.5654 31.6635 36.8269 28.5248C36.3838 19.4412 42.1811 16.4318 45.1351 16.0625V27.1401C45.1351 29.0787 46.7967 31.2942 50.6739 31.0173C53.7756 30.7957 54.7357 28.3402 54.828 27.1401C54.828 23.263 55.2157 15.5086 56.7666 15.5086C58.7051 15.5086 63.4131 20.7705 63.967 27.1401C64.4101 32.2358 58.4282 37.7561 55.3819 39.8794L54.828 53.7264Z" fill="#FC5C7E"/>
<path d="M74.3747 21.1173H73.5157C73.0079 19.334 72.2986 17.6229 71.3969 16.0052L72.0074 15.3945C72.7061 14.6962 73.0905 13.7649 73.0905 12.772C73.0905 11.7791 72.7061 10.8479 72.0069 10.1488L67.9387 6.08533C67.2401 5.38241 66.3076 4.99544 65.3129 4.99544C64.3183 4.99544 63.3857 5.38241 62.6905 6.08186L62.0806 6.69176C60.4617 5.78725 58.75 5.07654 56.9678 4.56892V3.71009C56.968 1.66438 55.3038 0 53.2579 0H47.5061C45.4603 0 43.796 1.66438 43.796 3.71009V4.56892C42.0141 5.07638 40.3014 5.78725 38.6792 6.69243L38.0721 6.08533C37.3732 5.38241 36.4407 4.99544 35.4461 4.99561C34.4516 4.99561 33.5191 5.38274 32.8239 6.08202L28.7565 10.1496C28.0579 10.8479 27.6734 11.7792 27.6734 12.7721C27.6734 13.765 28.0579 14.6962 28.7563 15.3945L29.3667 16.0051C28.4612 17.6277 27.7515 19.3391 27.2466 21.1173H26.3844C24.3387 21.1173 22.6743 22.7817 22.6743 24.8274V30.5842C22.6743 32.6299 24.3387 34.2943 26.3844 34.2943H27.2466C27.7515 36.0724 28.4612 37.7838 29.3667 39.4066L28.7563 40.0172C28.0577 40.7155 27.6732 41.6468 27.6732 42.6397C27.6732 43.6324 28.0577 44.5638 28.7562 45.2621L32.8205 49.3263C33.5191 50.0293 34.4514 50.4162 35.446 50.4162H35.4461C36.4407 50.4162 37.3733 50.0293 38.0686 49.3298L38.679 48.7192C40.3029 49.6252 42.0156 50.3351 43.7958 50.8399V51.7017C43.7958 53.7475 45.4602 55.4118 47.5059 55.4118H53.2577C55.3034 55.4118 56.9678 53.7475 56.9678 51.7017V50.8399C58.7485 50.335 60.4599 49.6254 62.0806 48.7199L62.687 49.3263C63.3857 50.0293 64.3181 50.4162 65.3127 50.4162C66.3074 50.4162 67.2401 50.0291 67.9346 49.3305L72.0074 45.2621C72.7059 44.5636 73.0904 43.6323 73.0904 42.6395C73.0904 41.6466 72.7059 40.7155 72.0074 40.0172L71.3967 39.4064C72.2984 37.7887 73.0076 36.0777 73.5156 34.2943H74.3746C76.4203 34.2943 78.0847 32.6299 78.0847 30.5842V24.8274C78.0848 22.7817 76.4206 21.1173 74.3747 21.1173ZM53.6578 51.7016C53.6578 51.9184 53.4747 52.1015 53.2579 52.1015H47.5061C47.2892 52.1015 47.1062 51.9184 47.1062 51.7016V49.5528V39.1185C47.1062 38.4263 46.6755 37.8073 46.0267 37.5666C41.5791 35.9172 38.591 31.6367 38.591 26.9154C38.591 23.1737 40.4541 19.6661 43.574 17.5335C43.714 17.4379 43.8378 17.3598 43.9461 17.2957C43.9401 17.5109 43.9249 17.7154 43.9168 17.8222C43.9044 17.9902 43.8944 18.1228 43.8944 18.2543V26.066C43.8944 29.6514 46.696 32.6458 50.2722 32.883C50.3452 32.8878 50.4184 32.8878 50.4914 32.883C54.0651 32.646 56.8645 29.6516 56.8645 26.066V18.2543C56.8645 18.1234 56.8548 17.9917 56.8425 17.8247C56.8346 17.7174 56.8193 17.5117 56.8136 17.2955C56.9215 17.3594 57.0446 17.4374 57.1841 17.5329C60.3048 19.666 62.168 23.1735 62.168 26.9152C62.168 31.6361 59.1815 35.9167 54.7366 37.5666C54.0879 37.8074 53.6574 38.4263 53.6574 39.1183V49.5526V51.7016H53.6578ZM74.7746 30.5842C74.7746 30.7972 74.5877 30.9841 74.3747 30.9841H72.2307C71.4574 30.9841 70.7871 31.5195 70.6165 32.2738C70.0923 34.5898 69.1845 36.7798 67.9182 38.783C67.5047 39.4371 67.5997 40.2904 68.1469 40.8376L69.6671 42.3578C69.7658 42.4565 69.7805 42.5766 69.7805 42.6395C69.7805 42.7023 69.7658 42.8226 69.6676 42.9206L65.5912 46.9925C65.4981 47.0861 65.3883 47.1058 65.3129 47.1058C65.2376 47.1058 65.128 47.0861 65.0313 46.9888L63.5111 45.4686C62.9631 44.9208 62.1089 44.8264 61.4548 45.2409C60.042 46.1361 58.5382 46.8465 56.968 47.3715V40.2193C62.1028 37.8296 65.4785 32.6222 65.4785 26.915C65.4785 22.0793 63.0761 17.5503 59.0526 14.8C58.4362 14.3787 56.5618 13.0972 54.9224 14.0408C53.3127 14.9676 53.473 17.1403 53.5414 18.0681C53.5474 18.1487 53.5532 18.2164 53.5545 18.2543V26.066C53.5545 27.8776 52.1698 29.3965 50.382 29.5711C48.5916 29.3964 47.2048 27.8775 47.2048 26.066L47.2047 18.2663C47.2062 18.2164 47.2121 18.1487 47.2181 18.0678C47.2871 17.1405 47.4488 14.969 45.8404 14.0416C44.2016 13.0964 42.3244 14.3784 41.7069 14.8C37.683 17.5504 35.2808 22.0795 35.2808 26.9152C35.2808 32.6232 38.6583 37.831 43.796 40.2199V47.3717C42.2254 46.8467 40.7198 46.136 39.3028 45.2402C39.0304 45.0681 38.7239 44.9842 38.4189 44.9842C37.9913 44.9842 37.5673 45.1495 37.248 45.4689L35.7247 46.9925C35.6315 47.0863 35.5218 47.106 35.4463 47.106C35.3708 47.106 35.2614 47.0863 35.1648 46.9892L31.0972 42.9214C30.9983 42.8228 30.9836 42.7024 30.9836 42.6397C30.9836 42.5768 30.9983 42.4566 31.0972 42.3578L32.6172 40.8376C33.1644 40.2904 33.2594 39.4371 32.8459 38.783C31.5732 36.7692 30.6655 34.5802 30.1483 32.2766C29.9788 31.521 29.3078 30.9839 28.5334 30.9839H26.3847C26.1717 30.9839 25.9849 30.7971 25.9849 30.5841V24.8273C25.9849 24.6105 26.1679 24.4274 26.3847 24.4274H28.5334C29.3078 24.4274 29.9786 23.8903 30.1483 23.1348C30.6655 20.8312 31.573 18.642 32.8459 16.6284C33.2594 15.9743 33.1644 15.1209 32.6172 14.5737L31.097 13.0535C30.9983 12.9549 30.9836 12.8347 30.9836 12.7718C30.9836 12.7089 30.9983 12.5887 31.0972 12.4899L35.1682 8.4187C35.2614 8.32502 35.371 8.30533 35.4464 8.30533C35.5219 8.30533 35.6315 8.32502 35.7281 8.42218L37.2482 9.9424C37.7957 10.4897 38.6491 10.5846 39.303 10.1711C41.3141 8.89968 43.5057 7.9902 45.816 7.46834C46.5708 7.29786 47.1065 6.62738 47.1065 5.85395V3.71009C47.1065 3.49327 47.2896 3.31021 47.5064 3.31021H53.2582C53.475 3.31021 53.6581 3.49327 53.6581 3.71009V5.85428C53.6581 6.62788 54.1938 7.2982 54.9484 7.46867C57.2609 7.99102 59.45 8.90001 61.4551 10.1706C62.1094 10.5851 62.9634 10.4907 63.5114 9.94289L65.035 8.4192C65.1281 8.32552 65.2379 8.30582 65.3132 8.30582C65.3887 8.30582 65.4982 8.32552 65.5956 8.42334L69.6674 12.4904C69.7661 12.5891 69.7808 12.7092 69.7808 12.7721C69.7808 12.835 69.7661 12.9552 69.6673 13.054L68.1472 14.5742C67.6001 15.1214 67.505 15.9748 67.9185 16.6289C69.1847 18.632 70.0926 20.8219 70.6168 23.1381C70.7875 23.8923 71.4578 24.4277 72.231 24.4277H74.3751C74.5919 24.4277 74.7749 24.6108 74.7749 24.8276V30.5842H74.7746Z" fill="#00163A"/>
<path d="M60.0258 72.8779C59.3794 73.5242 59.3794 74.5722 60.0258 75.2187C60.349 75.5418 60.7726 75.7035 61.1961 75.7035C61.6197 75.7035 62.0432 75.5418 62.3665 75.2187L62.3711 75.2141C63.0174 74.5678 63.0151 73.522 62.3686 72.8757C61.7221 72.2294 60.6721 72.2319 60.0258 72.8779Z" fill="#00163A"/>
<rect x="2.20935" y="57.6035" width="11.0776" height="21.0474" fill="#FC5C7E"/>
<path d="M67.6932 56.8447L54.5532 63.5927C53.4393 62.4391 51.8785 61.7195 50.1521 61.7195H41.149C40.6448 61.7195 40.5217 61.6794 40.5134 61.6766C40.4404 61.6382 40.2097 61.4214 40.0245 61.2473L39.9424 61.1701C32.6586 54.3135 26.5057 54.748 19.5088 57.5094C18.3767 57.9563 18.3548 57.9572 17.2179 58.0057L15.1821 58.0072C14.6022 56.2576 12.9517 54.9915 11.0101 54.9915H4.39034C1.96941 54.9915 0 56.9632 0 59.3866V76.7601C0 79.1809 1.96941 81.1504 4.39034 81.1504H11.0101C12.9515 81.1504 14.6019 79.8858 15.182 78.1383H18.906C19.2348 78.1383 19.2348 78.1383 19.6173 78.2461C19.7564 78.2853 19.9255 78.3329 20.144 78.3917L37.2733 82.9744C38.0284 83.1783 38.7209 83.379 39.3907 83.573C41.5854 84.2089 43.4302 84.7435 45.3529 84.7435C47.5261 84.7435 49.7984 84.0606 52.787 82.0689C52.8014 82.0593 52.8158 82.0493 52.83 82.0392L56.1002 79.7073C56.8445 79.1766 57.0176 78.1431 56.4868 77.3988C55.956 76.6543 54.9223 76.4814 54.1785 77.0122L50.93 79.3285C46.5929 82.2132 44.7513 81.6799 40.312 80.3936C39.6281 80.1954 38.921 79.9905 38.133 79.7777L21.0023 75.1949C20.8017 75.1409 20.6443 75.0965 20.5152 75.0601C19.8903 74.884 19.6566 74.8284 18.9061 74.8284H15.4052V61.3188H17.1939C17.2178 61.3188 17.2413 61.3183 17.2651 61.3173L17.3594 61.3133C18.7469 61.2541 19.135 61.2162 20.7243 60.5887C26.8695 58.1636 31.613 57.8755 37.6757 63.5828L37.7576 63.6598C38.7937 64.6335 39.3904 65.03 41.1491 65.03H50.1522C51.2089 65.03 52.1303 65.6166 52.6106 66.4807C52.6157 66.4903 52.6217 66.4994 52.627 66.509C52.8415 66.9058 52.9636 67.3596 52.9636 67.8415C52.9636 69.3892 51.7026 70.6483 50.1524 70.6483H35.5615C34.6475 70.6483 33.9064 71.3893 33.9064 72.3034C33.9064 73.2175 34.6475 73.9585 35.5615 73.9585H50.1524C53.5278 73.9585 56.2738 71.2145 56.2738 67.8415C56.2738 67.3831 56.2215 66.9369 56.1255 66.507L69.2055 59.7898C70.4435 59.1542 72.1364 59.2224 72.9768 60.5862C73.7203 61.7883 73.3113 63.3862 72.0261 64.3024L66.2884 68.3889C65.5437 68.9192 65.37 69.9526 65.9003 70.6973C66.2232 71.1506 66.7326 71.3924 67.2498 71.3924C67.582 71.3924 67.9173 71.2926 68.2085 71.0854L73.9469 66.9984C76.6722 65.0555 77.4653 61.5503 75.7933 58.8474C74.1491 56.179 70.6671 55.318 67.6932 56.8447ZM12.0949 76.7601C12.0949 77.3457 11.5982 77.8402 11.0101 77.8402H4.39034C3.80476 77.8402 3.31022 77.3455 3.31022 76.7601V59.3868C3.31022 58.7886 3.79483 58.3018 4.39034 58.3018H11.0101C11.5982 58.3018 12.0949 58.7985 12.0949 59.3868V76.7601Z" fill="#00163A"/>
</svg>
