<svg width="85" height="85" viewBox="0 0 85 85" fill="none" xmlns="http://www.w3.org/2000/svg">
<path d="M32.597 66.1339C32.737 66.3539 32.807 66.5839 32.807 66.8239C32.807 67.1239 32.687 67.3739 32.447 67.5739C32.227 67.7539 31.967 67.8439 31.667 67.8439C31.207 67.8439 30.847 67.6439 30.587 67.2439L26.567 60.8839C26.047 60.0639 25.507 59.5039 24.947 59.2039C24.387 58.8839 23.627 58.7239 22.667 58.7239H18.887V66.5539C18.887 66.9339 18.777 67.2439 18.557 67.4839C18.337 67.7039 18.047 67.8139 17.687 67.8139C17.307 67.8139 17.007 67.7039 16.787 67.4839C16.567 67.2439 16.457 66.9339 16.457 66.5539V47.7139C16.457 47.3539 16.567 47.0639 16.787 46.8439C17.027 46.6239 17.337 46.5139 17.717 46.5139H25.157C27.457 46.5139 29.207 47.0239 30.407 48.0439C31.627 49.0639 32.237 50.5639 32.237 52.5439C32.237 54.2239 31.747 55.5739 30.767 56.5939C29.807 57.6139 28.427 58.2339 26.627 58.4539C27.127 58.6139 27.577 58.8739 27.977 59.2339C28.377 59.5939 28.777 60.0939 29.177 60.7339L32.597 66.1339ZM24.947 56.6839C26.587 56.6839 27.807 56.3439 28.607 55.6639C29.427 54.9839 29.837 53.9539 29.837 52.5739C29.837 51.2139 29.437 50.2039 28.637 49.5439C27.837 48.8839 26.607 48.5539 24.947 48.5539H18.887V56.6839H24.947ZM40.1135 52.6939C41.3935 52.6939 42.5235 53.0139 43.5035 53.6539C44.4835 54.2939 45.2435 55.1939 45.7835 56.3539C46.3235 57.4939 46.5935 58.8239 46.5935 60.3439C46.5935 61.8639 46.3235 63.1939 45.7835 64.3339C45.2435 65.4539 44.4835 66.3239 43.5035 66.9439C42.5435 67.5639 41.4135 67.8739 40.1135 67.8739C38.9735 67.8739 37.9735 67.6239 37.1135 67.1239C36.2735 66.6239 35.6335 65.9139 35.1935 64.9939V72.0439C35.1935 72.4039 35.0835 72.6839 34.8635 72.8839C34.6635 73.1039 34.3735 73.2139 33.9935 73.2139C33.6135 73.2139 33.3135 73.1039 33.0935 72.8839C32.8735 72.6639 32.7635 72.3839 32.7635 72.0439V53.9539C32.7635 53.5939 32.8735 53.3039 33.0935 53.0839C33.3135 52.8639 33.6135 52.7539 33.9935 52.7539C34.3735 52.7539 34.6635 52.8639 34.8635 53.0839C35.0835 53.3039 35.1935 53.5939 35.1935 53.9539V55.5739C35.6335 54.6539 36.2735 53.9439 37.1135 53.4439C37.9735 52.9439 38.9735 52.6939 40.1135 52.6939ZM39.6335 65.8639C41.0535 65.8639 42.1535 65.3839 42.9335 64.4239C43.7135 63.4639 44.1035 62.1039 44.1035 60.3439C44.1035 58.5839 43.7135 57.2139 42.9335 56.2339C42.1535 55.2339 41.0535 54.7339 39.6335 54.7339C38.2135 54.7339 37.1135 55.2139 36.3335 56.1739C35.5735 57.1339 35.1935 58.5039 35.1935 60.2839C35.1935 62.0639 35.5735 63.4439 36.3335 64.4239C37.1135 65.3839 38.2135 65.8639 39.6335 65.8639Z" fill="#00163A"/>
<path d="M5.08471 42.6149C4.37721 42.2866 3.53749 42.5939 3.20906 43.3013C1.08329 47.8763 -0.0121443 52.8622 0.000101549 57.9069C0.000101549 75.7129 9.97865 84.7423 29.6603 84.7423C33.6372 84.8049 37.6053 84.3476 41.4637 83.3822C42.2176 83.1817 42.6663 82.4081 42.4658 81.6542C42.2653 80.9002 41.4916 80.4516 40.7377 80.6521C37.1147 81.5468 33.3918 81.9721 29.6603 81.9176C11.6029 81.9176 2.82489 74.0633 2.82489 57.9069C2.79947 53.271 3.80638 48.6876 5.77255 44.4892C6.09977 43.7817 5.79192 42.9428 5.08471 42.6149Z" fill="#00163A"/>
<path d="M80.5065 35.3086H49.4338C47.0937 35.3086 45.1967 37.2057 45.1967 39.5458V80.5052C45.1967 82.8453 47.0937 84.7424 49.4338 84.7424H80.5065C82.8466 84.7424 84.7436 82.8453 84.7436 80.5052V39.5458C84.7436 37.2057 82.8466 35.3086 80.5065 35.3086ZM81.9189 80.5052C81.9189 81.2852 81.2865 81.9176 80.5065 81.9176H49.4338C48.6538 81.9176 48.0214 81.2852 48.0214 80.5052V39.5458C48.0214 38.7658 48.6538 38.1334 49.4338 38.1334H80.5065C81.2865 38.1334 81.9189 38.7658 81.9189 39.5458V80.5052Z" fill="#00163A"/>
<rect x="54.1234" y="44.3568" width="21.5169" height="8.11022" fill="#FC5C7E"/>
<path d="M55.0835 53.6697H74.8569C76.417 53.6697 77.6817 52.405 77.6817 50.8449V45.1954C77.6817 43.6353 76.417 42.3706 74.8569 42.3706H55.0835C53.5234 42.3706 52.2587 43.6353 52.2587 45.1954V50.8449C52.2587 52.405 53.5234 53.6697 55.0835 53.6697ZM55.0835 45.1954H74.8569V50.8449H55.0835V45.1954Z" fill="#00163A"/>
<path d="M57.9082 57.9069H53.6711C52.891 57.9069 52.2587 58.5393 52.2587 59.3193C52.2587 60.0994 52.891 60.7317 53.6711 60.7317H57.9082C58.6883 60.7317 59.3206 60.0994 59.3206 59.3193C59.3206 58.5393 58.6883 57.9069 57.9082 57.9069Z" fill="#00163A"/>
<path d="M57.9082 63.5565H53.6711C52.891 63.5565 52.2587 64.1888 52.2587 64.9688C52.2587 65.7489 52.891 66.3812 53.6711 66.3812H57.9082C58.6883 66.3812 59.3206 65.7489 59.3206 64.9688C59.3206 64.1888 58.6883 63.5565 57.9082 63.5565Z" fill="#00163A"/>
<path d="M57.9082 69.206H53.6711C52.891 69.206 52.2587 69.8384 52.2587 70.6184C52.2587 71.3985 52.891 72.0308 53.6711 72.0308H57.9082C58.6883 72.0308 59.3206 71.3985 59.3206 70.6184C59.3206 69.8384 58.6883 69.206 57.9082 69.206Z" fill="#00163A"/>
<path d="M57.9082 74.8557H53.6711C52.891 74.8557 52.2587 75.488 52.2587 76.268C52.2587 77.0481 52.891 77.6804 53.6711 77.6804H57.9082C58.6883 77.6804 59.3206 77.0481 59.3206 76.268C59.3206 75.488 58.6883 74.8557 57.9082 74.8557Z" fill="#00163A"/>
<path d="M67.795 57.9069H63.5578C62.7777 57.9069 62.1454 58.5393 62.1454 59.3193C62.1454 60.0994 62.7777 60.7317 63.5578 60.7317H67.795C68.575 60.7317 69.2073 60.0994 69.2073 59.3193C69.2073 58.5393 68.575 57.9069 67.795 57.9069Z" fill="#00163A"/>
<path d="M67.795 63.5565H63.5578C62.7777 63.5565 62.1454 64.1888 62.1454 64.9688C62.1454 65.7489 62.7777 66.3812 63.5578 66.3812H67.795C68.575 66.3812 69.2073 65.7489 69.2073 64.9688C69.2073 64.1888 68.575 63.5565 67.795 63.5565Z" fill="#00163A"/>
<path d="M67.795 69.206H63.5578C62.7777 69.206 62.1454 69.8384 62.1454 70.6184C62.1454 71.3985 62.7777 72.0308 63.5578 72.0308H67.795C68.575 72.0308 69.2073 71.3985 69.2073 70.6184C69.2073 69.8384 68.575 69.206 67.795 69.206Z" fill="#00163A"/>
<path d="M67.795 74.8557H63.5578C62.7777 74.8557 62.1454 75.488 62.1454 76.268C62.1454 77.0481 62.7777 77.6804 63.5578 77.6804H67.795C68.575 77.6804 69.2073 77.0481 69.2073 76.268C69.2073 75.488 68.575 74.8557 67.795 74.8557Z" fill="#00163A"/>
<path d="M77.6817 57.9069H73.4445C72.6645 57.9069 72.0321 58.5393 72.0321 59.3193C72.0321 60.0994 72.6645 60.7317 73.4445 60.7317H77.6817C78.4617 60.7317 79.0941 60.0994 79.0941 59.3193C79.0941 58.5393 78.4617 57.9069 77.6817 57.9069Z" fill="#00163A"/>
<path d="M77.6817 63.5565H73.4445C72.6645 63.5565 72.0321 64.1888 72.0321 64.9688C72.0321 65.7489 72.6645 66.3812 73.4445 66.3812H77.6817C78.4617 66.3812 79.0941 65.7489 79.0941 64.9688C79.0941 64.1888 78.4617 63.5565 77.6817 63.5565Z" fill="#00163A"/>
<path d="M77.6817 69.206H73.4445C72.6645 69.206 72.0321 69.8384 72.0321 70.6184C72.0321 71.3985 72.6645 72.0308 73.4445 72.0308H77.6817C78.4617 72.0308 79.0941 71.3985 79.0941 70.6184C79.0941 69.8384 78.4617 69.206 77.6817 69.206Z" fill="#00163A"/>
<path d="M77.6817 74.8557H73.4445C72.6645 74.8557 72.0321 75.488 72.0321 76.268C72.0321 77.0481 72.6645 77.6804 73.4445 77.6804H77.6817C78.4617 77.6804 79.0941 77.0481 79.0941 76.268C79.0941 75.488 78.4617 74.8557 77.6817 74.8557Z" fill="#00163A"/>
<rect x="12.0826" y="23.3364" width="35.2546" height="5.95853" rx="2.97926" fill="#FC5C7E"/>
<path d="M8.93348 1.78267C5.21465 5.18936 11.7484 15.6976 15.5986 21.1847H14.8302C13.5182 21.1799 12.2587 21.6996 11.3317 22.6282C10.4079 23.559 9.88873 24.8167 9.88684 26.1281C9.89292 27.8881 10.8372 29.5112 12.3642 30.3864C10.7155 32.1302 9.16246 33.962 7.71176 35.8736C7.24374 36.4976 7.3702 37.3829 7.99424 37.8509C8.61827 38.319 9.50356 38.1925 9.97159 37.5685C11.7162 35.2861 13.6031 33.1161 15.6212 31.0715H44.4905C46.2565 31.0715 47.8885 30.1293 48.7715 28.5998C49.6546 27.0703 49.6546 25.1859 48.7715 23.6564C47.8885 22.1269 46.2565 21.1847 44.4905 21.1847H43.7221C47.5709 15.6976 54.1046 5.19078 50.3886 1.78267C48.6796 0.217744 46.6881 1.35896 44.9325 2.35752C43.3361 3.45085 41.4772 4.09924 39.5471 4.236C38.0149 4.23276 36.5542 3.58723 35.5204 2.45639C33.9748 0.885018 31.863 3.05176e-05 29.6589 3.05176e-05C27.4548 3.05176e-05 25.3431 0.885018 23.7975 2.45639C22.762 3.58904 21.2984 4.23474 19.7637 4.236C17.8346 4.10065 15.9767 3.45211 14.3825 2.35752C12.6283 1.35613 10.6382 0.219156 8.93348 1.78267ZM45.9918 24.6281C46.5995 25.2343 46.7814 26.1472 46.4525 26.94C46.1236 27.7328 45.3488 28.2488 44.4905 28.2467H14.8302C13.6602 28.2467 12.7116 27.2981 12.7116 26.1281C12.7116 24.958 13.6602 24.0095 14.8302 24.0095H44.4905C45.0529 24.0097 45.5925 24.232 45.9918 24.6281ZM19.7637 7.06078C21.9687 7.06047 24.0811 6.17449 25.6265 4.60181C26.6581 3.46863 28.1195 2.82273 29.6519 2.82273C31.1842 2.82273 32.6456 3.46863 33.6772 4.60181C35.2247 6.1757 37.3398 7.06173 39.5471 7.06078C41.9721 6.93337 44.3182 6.15573 46.3393 4.80943C46.9841 4.35429 47.7136 4.033 48.4847 3.86454C49.9338 5.19219 46.1034 13.199 40.2476 21.1847H36.7223V14.1227C36.7223 13.3427 36.0899 12.7104 35.3099 12.7104C34.5299 12.7104 33.8975 13.3427 33.8975 14.1227V21.1847H25.4232V14.1227C25.4232 13.3427 24.7908 12.7104 24.0108 12.7104C23.2307 12.7104 22.5984 13.3427 22.5984 14.1227V21.1847H19.0787C13.2229 13.199 9.39251 5.19219 10.8614 3.84335C11.6165 4.04504 12.3326 4.37157 12.98 4.80943C14.998 6.15556 17.3413 6.93325 19.7637 7.06078Z" fill="#00163A"/>
</svg>
