<svg width="89" height="88" viewBox="0 0 89 88" fill="none" xmlns="http://www.w3.org/2000/svg">
<path d="M15.847 30.2479H19.4472V43.818H15.847L12.5237 37.1714L15.847 30.2479Z" fill="#FC5C7E"/>
<path d="M73.4506 30.2479H67.3579V43.541H73.4506L76.22 37.0301L73.4506 30.2479Z" fill="#FC5C7E"/>
<path d="M8.51874 76.2859C6.34583 76.1542 2 74.8241 2 70.5573V17.4197C2.13169 15.9711 3.26424 13.0739 6.7409 13.0739H16.8153M71.3357 13.0739H80.8175C82.7929 13.3373 86.7436 14.5752 86.7436 17.4197V70.5573C86.2169 72.4668 84.2942 76.2859 80.8175 76.2859H25.7045L15.0375 86.1628V76.2859M43.878 68.5819C42.7586 68.1869 40.5198 66.7251 40.5198 64.0386C40.7832 63.0509 41.8236 61.036 43.878 60.878C44.9974 60.8121 47.4337 61.3521 48.2238 64.0386C51.121 64.697 58.4167 64.3546 64.4219 57.7174C65.6071 56.2688 68.0171 52.0283 68.1751 46.6553V44.0873M68.1751 36.5808V44.0873M68.1751 44.0873H71.9283C73.1794 43.758 75.642 41.7958 75.484 36.5808C75.5498 34.2762 74.9309 29.667 71.9283 29.667H68.1751V22.5557C66.7923 15.5102 60.1156 1.53767 44.4706 2.01176C37.4251 1.94592 22.7414 5.96251 20.371 22.5557V29.667M20.371 29.667V44.0873H16.8153C15.3009 43.8897 12.3115 42.1119 12.4695 36.5808C12.7329 34.2762 13.9708 29.667 16.8153 29.667H20.371ZM27.4824 26.5064C27.4824 20.8095 30.88 9.39665 44.4706 9.32066C49.9358 9.45235 60.8662 13.0739 60.8662 26.5064" stroke="#00163A" stroke-width="3" stroke-linecap="round" stroke-linejoin="round"/>
<rect x="34.9888" y="48.2356" width="3.55568" height="3.55568" fill="#00163A"/>
<rect x="42.4952" y="48.2356" width="3.55568" height="3.55568" fill="#00163A"/>
<rect x="50.0016" y="48.2356" width="3.55568" height="3.55568" fill="#00163A"/>
</svg>
