<svg width="51" height="34" viewBox="0 0 51 34" fill="none" xmlns="http://www.w3.org/2000/svg">
<path d="M16.7528 15.139C15.5213 14.8554 14.2899 14.7115 13.0919 14.7115C11.2421 14.7115 9.69855 15.0497 8.50169 15.4638C9.65555 12.0844 12.4274 6.25348 17.9492 5.59684C18.4605 5.536 18.8796 5.24019 19.0191 4.842L20.2259 1.38882C20.3277 1.09679 20.2674 0.784203 20.0592 0.530774C19.8509 0.277345 19.5163 0.108253 19.1413 0.0671334C18.7338 0.0226575 18.3184 0 17.9067 0C11.2788 0 4.71493 5.53432 1.94515 13.4586C0.319253 18.1076 -0.1575 25.097 3.84744 29.4964C6.08855 31.9581 9.35817 33.2726 13.5656 33.4039C13.5829 33.4044 13.5996 33.4048 13.617 33.4048C18.8083 33.4048 23.4116 30.6078 24.812 26.6037C25.6486 24.21 25.2704 21.6996 23.7463 19.5333C22.2384 17.3913 19.755 15.8301 16.7528 15.139Z" fill="#9F9F9F"/>
<path d="M49.2492 19.5338C47.7413 17.3914 45.2579 15.8301 42.2558 15.1391C41.0243 14.8554 39.7928 14.7115 38.5954 14.7115C36.7456 14.7115 35.2015 15.0497 34.0046 15.4638C35.1585 12.0845 37.9304 6.2535 43.4526 5.59685C43.964 5.53601 44.3825 5.2402 44.5226 4.84201L45.7294 1.38883C45.8311 1.0968 45.7708 0.784205 45.5626 0.530775C45.3549 0.277346 45.0203 0.108253 44.6448 0.0671336C44.2378 0.0226575 43.8224 0 43.4101 0C36.7823 0 30.2184 5.53433 27.4481 13.4586C25.8227 18.1076 25.346 25.0971 29.3514 29.4973C31.592 31.9585 34.8622 33.2735 39.069 33.4044C39.0863 33.4049 39.1031 33.4053 39.1209 33.4053C44.3117 33.4053 48.9156 30.6083 50.316 26.6042C51.1515 24.2105 50.7728 21.6997 49.2492 19.5338Z" fill="#9F9F9F"/>
</svg>
