<svg width="447" height="243" viewBox="0 0 447 243" fill="none" xmlns="http://www.w3.org/2000/svg">
<path opacity="0.4" d="M302.882 150.789C321.277 150.789 336.188 138.859 336.188 124.144C336.188 109.428 321.277 97.4988 302.882 97.4988C284.488 97.4988 269.576 109.428 269.576 124.144C269.576 138.859 284.488 150.789 302.882 150.789Z" fill="#FC5C7E"/>
<path d="M303.642 161.012H117.915V201.281H303.642V161.012Z" fill="#3F3D56"/>
<path d="M291.747 61.2408L284.33 64.0487L290.894 60.1224C289.827 58.7904 288.629 57.5288 287.31 56.3498L255.148 62.7451L284.2 53.8793C282.872 52.9423 281.462 52.0826 279.981 51.3069L230.973 57.622C225.769 62.8275 222.933 69.2935 222.929 75.9587H296.699C296.696 70.7896 294.988 65.7126 291.747 61.2408Z" fill="#F2F2F2"/>
<path d="M297.621 18.0858C268.142 6.58344 235.766 0.623177 202.968 0.660329C136.214 0.660329 76.5332 24.8752 36.8929 62.9219C104.773 51.0234 222.958 30.4264 297.621 18.0858Z" fill="#F2F2F2"/>
<path d="M443.372 241.552H0.75V242.246H443.372V241.552Z" fill="#FAFAFA"/>
<path d="M259.321 75.9587L234.212 46.1206C234.212 46.1206 272.239 56.741 267.923 75.9587H259.321Z" fill="#3F3D56"/>
<path d="M260.307 75.9587L285.417 46.1206C285.417 46.1206 247.39 56.741 251.706 75.9587H260.307Z" fill="#FC5C7E"/>
<path d="M303.859 242.246H117.698V20.0669H303.859V242.246ZM118.566 241.552H302.992V20.7612H118.566V241.552Z" fill="#2F2E41"/>
<path d="M303.642 25.3372H118.349V26.0312H303.642V25.3372Z" fill="#2F2E41"/>
<path d="M123.122 24.2327C124.081 24.2327 124.858 23.611 124.858 22.8441C124.858 22.0772 124.081 21.4556 123.122 21.4556C122.163 21.4556 121.386 22.0772 121.386 22.8441C121.386 23.611 122.163 24.2327 123.122 24.2327Z" fill="#FC5C7E"/>
<path d="M127.895 24.2327C128.854 24.2327 129.631 23.611 129.631 22.8441C129.631 22.0772 128.854 21.4556 127.895 21.4556C126.937 21.4556 126.16 22.0772 126.16 22.8441C126.16 23.611 126.937 24.2327 127.895 24.2327Z" fill="#FC5C7E"/>
<path d="M132.669 24.2327C133.627 24.2327 134.405 23.611 134.405 22.8441C134.405 22.0772 133.627 21.4556 132.669 21.4556C131.71 21.4556 130.933 22.0772 130.933 22.8441C130.933 23.611 131.71 24.2327 132.669 24.2327Z" fill="#FC5C7E"/>
<path d="M132.669 30.1343H124.858V33.606H132.669V30.1343Z" fill="#FC5C7E"/>
<path d="M163.045 57.5596H124.858V61.031H163.045V57.5596Z" fill="#FC5C7E"/>
<path d="M260.682 33.606L298.869 33.606V30.1343L260.682 30.1343V33.606Z" fill="#F2F2F2"/>
<path d="M189.081 63.4612H124.858V65.5442H189.081V63.4612Z" fill="#F2F2F2"/>
<path d="M185.61 67.9741H124.858V70.0571H185.61V67.9741Z" fill="#F2F2F2"/>
<path d="M169.12 72.4873H124.858V74.5701H169.12V72.4873Z" fill="#F2F2F2"/>
<path d="M164.781 134.281H139.612V136.364H164.781V134.281Z" fill="#F2F2F2"/>
<path d="M163.42 138.794H139.612V140.877H163.42V138.794Z" fill="#F2F2F2"/>
<path d="M156.958 143.307H139.612V145.39H156.958V143.307Z" fill="#F2F2F2"/>
<path d="M223.363 134.281H198.194V136.364H223.363V134.281Z" fill="#F2F2F2"/>
<path d="M222.002 138.794H198.194V140.877H222.002V138.794Z" fill="#F2F2F2"/>
<path d="M215.54 143.307H198.194V145.39H215.54V143.307Z" fill="#F2F2F2"/>
<path d="M284.115 134.281H258.946V136.364H284.115V134.281Z" fill="#F2F2F2"/>
<path d="M282.755 138.794H258.946V140.877H282.755V138.794Z" fill="#F2F2F2"/>
<path d="M276.292 143.307H258.946V145.39H276.292V143.307Z" fill="#F2F2F2"/>
<path d="M216.854 213.085H178.667V216.556H216.854V213.085Z" fill="#FC5C7E"/>
<path d="M242.89 218.986H178.667V221.069H242.89V218.986Z" fill="#F2F2F2"/>
<path d="M239.419 223.5H178.667V225.582H239.419V223.5Z" fill="#F2F2F2"/>
<path d="M222.929 228.012H178.667V230.095H222.929V228.012Z" fill="#F2F2F2"/>
<path opacity="0.3" d="M287.37 95.0522H136.357V95.7466H287.37V95.0522Z" fill="#FC5C7E"/>
<path opacity="0.3" d="M168.252 107.203H136.14V130.115H168.252V107.203Z" fill="#FC5C7E"/>
<path d="M226.834 107.203H194.723V130.115H226.834V107.203Z" fill="#3F3D56"/>
<path d="M287.587 107.203H255.475V130.115H287.587V107.203Z" fill="#3F3D56"/>
<path d="M206.595 130.019L206.171 130.012C206.18 129.637 206.445 120.791 210.798 118.346L211.041 118.624C206.864 120.97 206.597 129.928 206.595 130.019Z" fill="#FC5C7E"/>
<path d="M213.038 118.234C214.208 118.234 215.156 117.476 215.156 116.54C215.156 115.604 214.208 114.845 213.038 114.845C211.868 114.845 210.919 115.604 210.919 116.54C210.919 117.476 211.868 118.234 213.038 118.234Z" fill="#FC5C7E"/>
<path d="M212.61 122.523C211.508 122.8 210.334 122.841 209.207 122.641C209.923 121.912 210.887 121.363 211.983 121.063C213.08 120.762 214.261 120.721 215.386 120.945C214.649 121.657 213.692 122.201 212.61 122.523Z" fill="#FC5C7E"/>
<path d="M267.347 130.019L266.923 130.012C266.932 129.637 267.197 120.791 271.55 118.346L271.793 118.624C267.616 120.97 267.349 129.928 267.347 130.019Z" fill="#FC5C7E"/>
<path d="M273.79 118.234C274.96 118.234 275.908 117.476 275.908 116.54C275.908 115.604 274.96 114.845 273.79 114.845C272.62 114.845 271.672 115.604 271.672 116.54C271.672 117.476 272.62 118.234 273.79 118.234Z" fill="#FC5C7E"/>
<path d="M273.362 122.523C272.26 122.8 271.086 122.841 269.959 122.641C270.675 121.912 271.639 121.363 272.735 121.063C273.832 120.762 275.013 120.721 276.138 120.945C275.401 121.657 274.444 122.201 273.362 122.523Z" fill="#FC5C7E"/>
<path d="M163.045 173.856H124.858V177.328H163.045V173.856Z" fill="#FC5C7E"/>
<path d="M189.081 179.758H124.858V181.841H189.081V179.758Z" fill="#F2F2F2"/>
<path d="M185.61 184.271H124.858V186.354H185.61V184.271Z" fill="#F2F2F2"/>
<path d="M169.12 188.784H124.858V190.867H169.12V188.784Z" fill="#F2F2F2"/>
<path opacity="0.4" d="M266.216 189.495C273.705 189.495 279.776 184.638 279.776 178.647C279.776 172.656 273.705 167.799 266.216 167.799C258.727 167.799 252.656 172.656 252.656 178.647C252.656 184.638 258.727 189.495 266.216 189.495Z" fill="#FC5C7E"/>
<path opacity="0.4" d="M241.12 191.438C246.373 191.438 250.632 188.031 250.632 183.828C250.632 179.625 246.373 176.218 241.12 176.218C235.867 176.218 231.608 179.625 231.608 183.828C231.608 188.031 235.867 191.438 241.12 191.438Z" fill="#FC5C7E"/>
<path d="M73.4356 230.269C92.3687 230.269 107.717 217.99 107.717 202.844C107.717 187.697 92.3687 175.418 73.4356 175.418C54.5024 175.418 39.1541 187.697 39.1541 202.844C39.1541 217.99 54.5024 230.269 73.4356 230.269Z" fill="#2F2E41"/>
<path d="M68.2282 224.367H57.8136V239.295H68.2282V224.367Z" fill="#2F2E41"/>
<path d="M89.0575 224.367H78.6428V239.295H89.0575V224.367Z" fill="#2F2E41"/>
<path d="M66.4925 242.072C71.2857 242.072 75.1713 240.907 75.1713 239.469C75.1713 238.031 71.2857 236.865 66.4925 236.865C61.6993 236.865 57.8136 238.031 57.8136 239.469C57.8136 240.907 61.6993 242.072 66.4925 242.072Z" fill="#2F2E41"/>
<path d="M87.3217 241.725C92.1149 241.725 96.0006 240.559 96.0006 239.121C96.0006 237.684 92.1149 236.518 87.3217 236.518C82.5285 236.518 78.6428 237.684 78.6428 239.121C78.6428 240.559 82.5285 241.725 87.3217 241.725Z" fill="#2F2E41"/>
<path d="M74.3034 205.274C80.7742 205.274 86.0199 201.077 86.0199 195.901C86.0199 190.724 80.7742 186.527 74.3034 186.527C67.8326 186.527 62.5869 190.724 62.5869 195.901C62.5869 201.077 67.8326 205.274 74.3034 205.274Z" fill="white"/>
<path d="M74.3035 194.859C76.4604 194.859 78.209 193.46 78.209 191.735C78.209 190.009 76.4604 188.61 74.3035 188.61C72.1465 188.61 70.3979 190.009 70.3979 191.735C70.3979 193.46 72.1465 194.859 74.3035 194.859Z" fill="#3F3D56"/>
<path d="M40.1813 177.339C37.4132 167.422 46.2616 157.401 59.9448 154.956C73.6279 152.512 86.9643 158.57 89.7324 168.488C92.5005 178.405 83.4321 182.063 69.749 184.507C56.0658 186.951 42.9493 187.257 40.1813 177.339Z" fill="#FC5C7E"/>
<path d="M104.255 174.311C108.244 167.443 109.293 161.063 106.598 160.061C103.903 159.059 98.4844 163.815 94.4951 170.683C90.5059 177.551 89.4568 183.931 92.1519 184.932C94.847 185.934 100.266 181.179 104.255 174.311Z" fill="#2F2E41"/>
<path d="M44.4722 192.948C47.0988 191.836 45.6379 185.508 41.2092 178.815C36.7805 172.121 31.061 167.597 28.4344 168.709C25.8079 169.821 27.2688 176.149 31.6975 182.843C36.1262 189.536 41.8457 194.061 44.4722 192.948Z" fill="#2F2E41"/>
<path d="M362.75 195.244C365.523 194.389 365.011 187.967 361.606 180.9C358.201 173.834 353.193 168.798 350.42 169.653C347.647 170.509 348.159 176.93 351.564 183.997C354.969 191.063 359.977 196.099 362.75 195.244Z" fill="#2F2E41"/>
<path d="M388.344 230.513C407.277 230.513 422.625 218.234 422.625 203.087C422.625 187.941 407.277 175.662 388.344 175.662C369.411 175.662 354.062 187.941 354.062 203.087C354.062 218.234 369.411 230.513 388.344 230.513Z" fill="#2F2E41"/>
<path d="M393.677 239.525L404.092 239.502L404.04 224.574L393.625 224.598L393.677 239.525Z" fill="#2F2E41"/>
<path d="M372.849 239.574L383.264 239.55L383.212 224.623L372.797 224.646L372.849 239.574Z" fill="#2F2E41"/>
<path d="M395.424 242.3C400.217 242.289 404.099 241.115 404.094 239.677C404.089 238.239 400.199 237.082 395.406 237.093C390.613 237.104 386.731 238.278 386.736 239.716C386.741 241.154 390.631 242.311 395.424 242.3Z" fill="#2F2E41"/>
<path d="M374.594 242C379.387 241.989 383.268 240.815 383.263 239.377C383.258 237.939 379.369 236.782 374.575 236.792C369.782 236.803 365.901 237.978 365.906 239.415C365.911 240.853 369.8 242.01 374.594 242Z" fill="#2F2E41"/>
<path d="M387.451 205.52C393.922 205.52 399.168 201.323 399.168 196.146C399.168 190.97 393.922 186.773 387.451 186.773C380.981 186.773 375.735 190.97 375.735 196.146C375.735 201.323 380.981 205.52 387.451 205.52Z" fill="white"/>
<path d="M387.452 199.271C389.608 199.271 391.357 197.872 391.357 196.146C391.357 194.421 389.608 193.022 387.452 193.022C385.295 193.022 383.546 194.421 383.546 196.146C383.546 197.872 385.295 199.271 387.452 199.271Z" fill="#3F3D56"/>
<path d="M421.508 177.508C424.242 167.585 415.358 157.584 401.667 155.17C387.975 152.756 374.66 158.844 371.926 168.768C369.193 178.691 378.274 182.329 391.966 184.742C405.658 187.156 418.775 187.432 421.508 177.508Z" fill="#FC5C7E"/>
<path d="M429.231 194.16C437.773 190.895 443.659 186.51 442.378 184.365C441.097 182.219 433.134 183.127 424.592 186.391C416.05 189.656 410.164 194.041 411.445 196.186C412.726 198.332 420.689 197.424 429.231 194.16Z" fill="#2F2E41"/>
<path d="M405.217 212.944C405.227 215.628 396.606 220.947 387.02 220.969C377.433 220.99 368.419 213.454 368.409 210.77C368.4 208.085 377.399 211.27 386.986 211.249C396.572 211.227 405.208 210.259 405.217 212.944Z" fill="white"/>
<path opacity="0.4" d="M398.784 201.645C425.206 201.645 446.625 184.51 446.625 163.372C446.625 142.235 425.206 125.099 398.784 125.099C372.362 125.099 350.942 142.235 350.942 163.372C350.942 184.51 372.362 201.645 398.784 201.645Z" fill="#FC5C7E"/>
<path d="M83.3749 149.1C102.308 149.1 117.656 136.821 117.656 121.675C117.656 106.528 102.308 94.2498 83.3749 94.2498C64.4417 94.2498 49.0934 106.528 49.0934 121.675C49.0934 136.821 64.4417 149.1 83.3749 149.1Z" fill="#2F2E41"/>
<path d="M73.4583 142.112L63.2102 140.628L59.8863 155.317L70.1344 156.801L73.4583 142.112Z" fill="#2F2E41"/>
<path d="M93.9545 145.081L83.7064 143.596L80.3825 158.285L90.6306 159.77L93.9545 145.081Z" fill="#2F2E41"/>
<path d="M93.9165 165.361C95.0782 164.263 93.0547 161.365 89.397 158.887C85.7392 156.409 81.8324 155.289 80.6707 156.387C79.5091 157.484 81.5326 160.382 85.1903 162.861C88.848 165.339 92.7549 166.458 93.9165 165.361Z" fill="#2F2E41"/>
<path d="M73.8475 162.455C75.0091 161.357 72.9856 158.459 69.3279 155.981C65.6701 153.502 61.7633 152.383 60.6016 153.48C59.44 154.578 61.4635 157.476 65.1212 159.954C68.7789 162.432 72.6858 163.552 73.8475 162.455Z" fill="#2F2E41"/>
<path d="M85.7749 124.34C92.2458 124.34 97.4914 120.143 97.4914 114.967C97.4914 109.79 92.2458 105.593 85.7749 105.593C79.3041 105.593 74.0585 109.79 74.0585 114.967C74.0585 120.143 79.3041 124.34 85.7749 124.34Z" fill="white"/>
<path d="M90.5904 114.731C92.7474 114.731 94.4959 113.332 94.4959 111.607C94.4959 109.881 92.7474 108.482 90.5904 108.482C88.4335 108.482 86.6849 109.881 86.6849 111.607C86.6849 113.332 88.4335 114.731 90.5904 114.731Z" fill="#3F3D56"/>
<path d="M56.3316 91.8393C55.8161 81.686 66.7543 73.0861 80.7629 72.6309C94.7715 72.1756 106.546 80.0375 107.061 90.1908C107.577 100.344 97.8389 102.651 83.8303 103.106C69.8218 103.561 56.8471 101.993 56.3316 91.8393Z" fill="#FC5C7E"/>
<path d="M116.231 120.874C125.459 119.182 132.401 115.932 131.737 113.615C131.073 111.297 123.054 110.79 113.827 112.482C104.6 114.174 97.6576 117.425 98.3216 119.742C98.9856 122.06 107.004 122.567 116.231 120.874Z" fill="#2F2E41"/>
<path d="M48.9381 129.827C58.1654 128.135 65.1073 124.885 64.4433 122.567C63.7794 120.25 55.7609 119.743 46.5336 121.435C37.3064 123.127 30.3644 126.377 31.0284 128.695C31.6924 131.012 39.7108 131.519 48.9381 129.827Z" fill="#2F2E41"/>
<path d="M73.9594 132.483C73.5904 134.114 74.0463 135.795 75.2268 137.157C76.4072 138.519 78.2156 139.45 80.2541 139.745C82.2926 140.04 84.3941 139.675 86.0965 138.731C87.7988 137.787 88.9625 136.34 89.3315 134.709C90.1 131.313 86.818 130.111 82.5731 129.497C78.3282 128.882 74.7279 129.087 73.9594 132.483Z" fill="white"/>
<path d="M164.094 99.3971L133.335 92.0198L125.11 113.967L155.869 121.344L164.094 99.3971Z" fill="#3F3D56"/>
<path d="M136.517 116.602L136.113 116.498C136.257 116.141 139.686 107.729 144.733 106.387L144.866 106.709C140.023 107.996 136.551 116.516 136.517 116.602Z" fill="#FC5C7E"/>
<path d="M147.527 106.866C148.697 106.866 149.645 106.107 149.645 105.171C149.645 104.235 148.697 103.477 147.527 103.477C146.357 103.477 145.409 104.235 145.409 105.171C145.409 106.107 146.357 106.866 147.527 106.866Z" fill="#FC5C7E"/>
<path d="M144.969 110.804C143.814 110.816 142.676 110.586 141.667 110.135C142.615 109.601 143.735 109.298 144.893 109.261C146.051 109.225 147.198 109.457 148.195 109.93C147.234 110.443 146.121 110.744 144.969 110.804Z" fill="#FC5C7E"/>
</svg>
