<svg width="342" height="271" viewBox="0 0 342 271" fill="none" xmlns="http://www.w3.org/2000/svg">
<path d="M342 5.63959H136.901V103.251H342V5.63959Z" fill="#E6E6E6"/>
<path d="M336.135 14.0099H142.766V95.4504H336.135V14.0099Z" fill="white"/>
<path d="M341.913 0H136.813V8.73905H341.913V0Z" fill="#FC5C7E"/>
<path d="M143.288 6.75849C144.18 6.75849 144.903 6.0333 144.903 5.13873C144.903 4.24417 144.18 3.51898 143.288 3.51898C142.396 3.51898 141.673 4.24417 141.673 5.13873C141.673 6.0333 142.396 6.75849 143.288 6.75849Z" fill="white"/>
<path d="M149.418 6.75849C150.31 6.75849 151.033 6.0333 151.033 5.13873C151.033 4.24417 150.31 3.51898 149.418 3.51898C148.526 3.51898 147.803 4.24417 147.803 5.13873C147.803 6.0333 148.526 6.75849 149.418 6.75849Z" fill="white"/>
<path d="M155.548 6.75849C156.44 6.75849 157.163 6.0333 157.163 5.13873C157.163 4.24417 156.44 3.51898 155.548 3.51898C154.656 3.51898 153.933 4.24417 153.933 5.13873C153.933 6.0333 154.656 6.75849 155.548 6.75849Z" fill="white"/>
<path d="M290.612 27.1883H258.462V82.2731H290.612V27.1883Z" fill="#F2F2F2"/>
<path d="M253.136 27.1873H188.289V42.35H253.136V27.1873Z" fill="#FC5C7E"/>
<path d="M253.136 46.5725H188.289V62.8868H253.136V46.5725Z" fill="#F2F2F2"/>
<path d="M253.136 67.1094H188.289V82.2721H253.136V67.1094Z" fill="#F2F2F2"/>
<path d="M97.8528 162.875C97.859 161.758 97.6299 160.653 97.1805 159.631C96.7311 158.609 96.0715 157.694 95.245 156.946C94.4185 156.198 93.4437 155.633 92.3845 155.289C91.3252 154.945 90.2054 154.829 89.0985 154.95C88.7483 154.989 88.4012 155.054 88.0599 155.142L61.3126 132.147L62.9109 123.506L49.7276 119.221L45.7528 133.069C45.2826 134.73 45.3592 136.5 45.9712 138.115C46.5832 139.73 47.698 141.104 49.1502 142.033L82.0541 162.905C82.0543 163.165 82.0677 163.424 82.0945 163.683C82.2146 164.793 82.5674 165.865 83.1295 166.829C83.6917 167.793 84.4506 168.627 85.3565 169.277C86.2625 169.926 87.295 170.376 88.3864 170.597C89.4779 170.819 90.6036 170.806 91.6899 170.56C92.0056 170.49 92.3167 170.4 92.6211 170.291C94.144 169.739 95.4617 168.732 96.397 167.406C97.3324 166.08 97.8404 164.499 97.8528 162.875Z" fill="#9F616A"/>
<path d="M31.3557 189.543H65.8418C65.8418 190.537 101.384 191.344 101.384 191.344C101.942 191.766 102.45 192.249 102.899 192.785C104.249 194.4 104.987 196.441 104.983 198.549V199.99C104.982 202.378 104.036 204.668 102.352 206.357C100.668 208.045 98.385 208.994 96.0039 208.995H31.3557C28.975 208.993 26.6924 208.044 25.009 206.355C23.3255 204.667 22.3789 202.377 22.3768 199.99V198.549C22.3801 196.161 23.3272 193.873 25.0103 192.185C26.6935 190.496 28.9754 189.547 31.3557 189.543Z" fill="#3F3D56"/>
<path d="M68.8686 208.637H59.5305V269.154H68.8686V208.637Z" fill="#3F3D56"/>
<path d="M95.4462 269.907C95.4462 271.04 81.2958 270.346 63.8404 270.346C46.385 270.346 32.2346 271.04 32.2346 269.907C32.2346 268.774 46.385 259.789 63.8404 259.789C81.2958 259.789 95.4462 268.774 95.4462 269.907Z" fill="#3F3D56"/>
<path d="M87.0167 261.733L95.8224 261.732L100.012 238.824L87.0149 238.825L87.0167 261.733Z" fill="#9F616A"/>
<path d="M84.7704 270.294L113.166 270.293V269.933C113.166 268.477 112.88 267.036 112.324 265.691C111.769 264.346 110.955 263.124 109.929 262.095C108.902 261.065 107.684 260.249 106.343 259.692C105.002 259.135 103.565 258.848 102.114 258.848H102.113L84.7699 258.849L84.7704 270.294Z" fill="#2F2E41"/>
<path d="M100.188 247.527L117.744 208.041C119.21 204.713 119.372 200.953 118.198 197.511C117.024 194.068 114.6 191.196 111.409 189.465L73.3291 168.984L55.9523 167.502L39.9234 166.041L39.8078 166.237C39.6599 166.488 36.2136 172.458 38.5432 179.005C40.3103 183.97 44.9066 187.849 52.2046 190.533C69.239 196.797 88.917 202.152 96.5866 204.162C96.9256 204.249 97.2423 204.407 97.5161 204.626C97.7898 204.844 98.0144 205.118 98.1749 205.43C98.3359 205.738 98.4315 206.077 98.4558 206.424C98.4801 206.771 98.4324 207.119 98.3159 207.447L82.0056 244.2C81.8352 244.666 81.7739 245.165 81.8263 245.659C81.8787 246.152 82.0434 246.627 82.3078 247.047C82.5722 247.467 82.9292 247.82 83.3512 248.079C83.7732 248.339 84.249 248.498 84.7418 248.543L96.9291 249.433C97.0326 249.443 97.1356 249.448 97.2381 249.448C97.8623 249.448 98.473 249.266 98.9965 248.925C99.5199 248.584 99.9337 248.099 100.188 247.527Z" fill="#CBCBCB"/>
<path d="M81.2699 261.733L90.0756 261.732L94.2657 238.824L81.2686 238.825L81.2699 261.733Z" fill="#9F616A"/>
<path d="M79.0238 270.294L107.419 270.293V269.933C107.419 268.477 107.133 267.036 106.578 265.691C106.023 264.346 105.208 263.124 104.182 262.095C103.156 261.065 101.938 260.249 100.597 259.692C99.2558 259.135 97.8186 258.848 96.3673 258.848H96.3661L79.0233 258.849L79.0238 270.294Z" fill="#2F2E41"/>
<path d="M93.7229 249.688L111.279 210.202C112.745 206.874 112.907 203.115 111.733 199.672C110.559 196.23 108.135 193.357 104.945 191.626L66.8644 171.146L49.4876 169.663L36.9329 168.571L36.9346 168.398C36.7868 168.649 33.3404 174.619 35.67 181.166C37.4371 186.132 38.4419 190.01 45.7399 192.694C62.7743 198.959 82.4523 204.313 90.1219 206.324C90.4608 206.411 90.7776 206.569 91.0514 206.787C91.3251 207.006 91.5496 207.28 91.7102 207.592C91.8712 207.9 91.9668 208.238 91.9911 208.585C92.0153 208.932 91.9677 209.28 91.8512 209.608L75.5408 246.361C75.3705 246.827 75.3092 247.326 75.3616 247.82C75.414 248.314 75.5787 248.789 75.8431 249.208C76.1075 249.628 76.4644 249.981 76.8865 250.241C77.3085 250.5 77.7843 250.659 78.2771 250.705L90.4644 251.595C90.5679 251.605 90.6709 251.61 90.7734 251.61C91.3976 251.609 92.0083 251.428 92.5318 251.087C93.0552 250.746 93.4689 250.26 93.7229 249.688Z" fill="#CBCBCB"/>
<path d="M60.6372 169.292C61.4789 168.694 73.5668 175.055 75.7218 170.012C65.6654 144.797 72.5953 133.908 66.4353 119.448C65.3503 116.954 63.7158 114.739 61.6547 112.97C59.5935 111.201 57.1593 109.923 54.535 109.233L38.5529 108.423L38.4701 108.464C34.8637 110.235 31.9225 113.125 30.0827 116.706C28.2429 120.286 27.6024 124.365 28.2562 128.339C28.3131 144.076 37.7009 156.078 34.4184 167.493C34.2807 167.97 34.2406 168.47 34.3003 168.963C34.36 169.456 34.5184 169.932 34.766 170.362C35.006 170.778 35.3284 171.14 35.7133 171.427C36.0982 171.713 36.5375 171.917 37.004 172.026L58.107 169.203C58.5999 169.32 59.1123 169.331 59.6098 169.235C60.1073 169.138 60.5785 168.936 60.9921 168.643L60.6372 169.292Z" fill="#2F2E41"/>
<path d="M43.8866 102.436C53.6303 102.436 61.5292 94.5142 61.5292 84.7416C61.5292 74.969 53.6303 67.0468 43.8866 67.0468C34.143 67.0468 26.2441 74.969 26.2441 84.7416C26.2441 94.5142 34.143 102.436 43.8866 102.436Z" fill="#9F616A"/>
<path d="M38.2671 100.983C39.2045 101.395 41.1241 93.9032 40.2642 92.4049C38.9854 90.1766 39.061 90.1926 38.2121 88.7184C37.3632 87.2442 37.1733 85.2263 38.2726 83.9292C39.3719 82.632 41.9158 82.8041 42.4175 84.4305C42.0948 81.3413 45.1413 78.8582 48.159 78.1604C51.1767 77.4625 54.3598 77.8958 57.3941 77.2748C60.9156 76.5541 64.5795 73.5936 63.1745 69.7097C62.9334 69.063 62.5724 68.468 62.1107 67.9561C60.4873 66.1254 58.2165 65.3438 55.9963 64.588C51.3775 63.0156 46.6324 61.4235 41.7579 61.5971C33.7486 61.8823 26.1779 67.4353 23.4795 75.004C23.1435 75.9484 22.8833 76.9181 22.7012 77.904C21.0281 86.927 26.2523 95.8271 34.7374 99.2631L38.2671 100.983Z" fill="#2F2E41"/>
<path d="M130.788 129.438L132.811 141.486C132.833 141.621 132.819 141.759 132.768 141.885L116.896 181.662C116.833 181.82 116.718 181.951 116.57 182.034C116.423 182.117 116.251 182.146 116.085 182.118C115.918 182.089 115.766 182.004 115.654 181.877C115.542 181.749 115.478 181.588 115.47 181.418L114.798 165.433C114.794 165.327 114.812 165.221 114.852 165.123L129.373 129.282C129.434 129.132 129.541 129.007 129.68 128.924C129.818 128.841 129.979 128.806 130.139 128.824C130.299 128.841 130.449 128.911 130.566 129.022C130.683 129.133 130.761 129.279 130.788 129.438Z" fill="#3F3D56"/>
<path d="M129.664 130.363L131.586 140.714L117.501 177.011L115.672 165.335L129.664 130.363Z" fill="#FC5C7E"/>
<path d="M68.0379 181.477C68.3845 182.834 113.885 184.303 114.357 183.893C114.78 183.367 115.147 182.797 115.451 182.194C115.928 181.34 116.369 180.483 116.369 180.483L115.622 166.051L70.8005 161.247C70.8005 161.247 68.8175 173.291 68.195 178.824C68.0544 179.701 68.0017 180.59 68.0379 181.477Z" fill="#3F3D56"/>
<path opacity="0.1" d="M109.757 167.578L109.761 180.012L89.9371 178.599L90.8143 166.227L109.757 167.578Z" fill="black"/>
<path opacity="0.1" d="M83.9245 169.732L84.0444 169.717L83.1083 175.003L72.0947 174.218L72.4707 168.915L83.9245 169.732Z" fill="black"/>
<path opacity="0.1" d="M68.0379 181.477C68.3845 182.834 113.885 184.303 114.357 183.893C114.78 183.367 115.147 182.797 115.451 182.194L68.195 178.824C68.0544 179.701 68.0017 180.59 68.0379 181.477Z" fill="black"/>
<path d="M49.7678 159.925L88.1493 167.109C88.2453 167.35 88.3536 167.586 88.4738 167.816C88.9953 168.8 89.7174 169.663 90.5932 170.349C91.469 171.035 92.4789 171.528 93.5572 171.797C94.6399 172.07 95.7682 172.108 96.8667 171.908C97.9651 171.709 99.0084 171.276 99.9267 170.64C101.59 169.494 102.754 167.754 103.179 165.776C103.604 163.798 103.259 161.731 102.214 160C101.169 158.269 99.5031 157.005 97.5583 156.466C95.6135 155.927 93.5368 156.155 91.754 157.102C91.4434 157.269 91.1448 157.458 90.8604 157.666L57.5232 146.244L55.8169 137.624L41.9888 138.542L43.4216 152.992C43.5955 154.679 44.3068 156.264 45.45 157.513C46.5932 158.762 48.1073 159.608 49.7678 159.925Z" fill="#9F616A"/>
<path d="M41.5204 144.987L61.6136 138.364L56.9265 124.866C56.3041 123.073 55.0701 121.559 53.4424 120.591C51.8147 119.623 49.8983 119.263 48.0317 119.575C46.1435 119.891 44.4301 120.873 43.2008 122.345C41.9716 123.817 41.3076 125.681 41.3287 127.601L41.5204 144.987Z" fill="#2F2E41"/>
<path d="M168.984 271H0.442367C0.325044 271 0.212526 270.953 0.129566 270.87C0.046606 270.787 0 270.674 0 270.556C0 270.439 0.046606 270.326 0.129566 270.243C0.212526 270.159 0.325044 270.113 0.442367 270.113H168.984C169.101 270.113 169.214 270.159 169.297 270.243C169.38 270.326 169.426 270.439 169.426 270.556C169.426 270.674 169.38 270.787 169.297 270.87C169.214 270.953 169.101 271 168.984 271Z" fill="#CBCBCB"/>
<path d="M234.546 257.021C242.63 261.217 246.224 270.353 246.224 270.353C246.224 270.353 236.712 272.686 228.628 268.49C220.544 264.294 216.95 255.158 216.95 255.158C216.95 255.158 226.462 252.825 234.546 257.021Z" fill="#F1F1F1"/>
<path d="M231.961 260.044C236.785 267.785 246.155 270.639 246.155 270.639C246.155 270.639 247.703 260.941 242.88 253.2C238.056 245.458 228.686 242.604 228.686 242.604C228.686 242.604 227.137 252.302 231.961 260.044Z" fill="#F1F1F1"/>
<path d="M260.996 270.824H210.567C210.449 270.824 210.337 270.777 210.254 270.694C210.171 270.611 210.124 270.498 210.124 270.38C210.124 270.263 210.171 270.15 210.254 270.067C210.337 269.984 210.449 269.937 210.567 269.937H260.996C261.114 269.937 261.226 269.984 261.309 270.067C261.392 270.15 261.439 270.263 261.439 270.38C261.439 270.498 261.392 270.611 261.309 270.694C261.226 270.777 261.114 270.824 260.996 270.824Z" fill="#CBCBCB"/>
</svg>
