<svg width="452" height="254" viewBox="0 0 452 254" fill="none" xmlns="http://www.w3.org/2000/svg">
<path d="M75.9922 166.021C75.9922 166.021 81.4826 173.506 79.5218 175.533C77.561 177.559 94.2328 177.61 94.2328 177.61C94.2328 177.61 91.7286 166.721 92.4656 164.216L75.9922 166.021Z" fill="#FFB8B8"/>
<path d="M84.7667 168.734C94.275 168.734 101.983 162.108 101.983 153.935C101.983 145.762 94.275 139.137 84.7667 139.137C75.2583 139.137 67.5503 145.762 67.5503 153.935C67.5503 162.108 75.2583 168.734 84.7667 168.734Z" fill="#2F2E41"/>
<path d="M125.26 234.147V242.921L135.466 241.093L134.615 234.879L125.26 234.147Z" fill="#FFB8B8"/>
<path d="M161.406 235.61L189.899 239.631L182.669 248.769C182.669 248.769 162.682 242.921 157.579 242.921C152.476 242.921 161.406 235.61 161.406 235.61Z" fill="#FFB8B8"/>
<path d="M96.7672 218.064C96.7672 218.064 118.03 196.863 124.834 197.959C131.638 199.056 134.615 205.636 134.615 205.636L138.443 238.169C138.443 238.169 124.834 239.265 124.834 238.169C124.834 237.072 122.283 213.677 122.283 213.677C122.283 213.677 102.296 251.694 91.6641 226.471L96.7672 218.064Z" fill="#D0CDE1"/>
<path d="M62.321 232.32C62.321 232.32 62.7463 251.47 75.5041 252.567C88.2618 253.664 102.295 244.383 102.295 244.383L125.259 234.926C125.259 234.926 152.476 247.307 160.556 244.017C160.556 244.017 169.061 236.341 163.533 234.148C158.004 231.954 163.107 234.148 163.107 234.148L130.362 219.526C130.362 219.526 123.984 218.064 112.927 222.085C101.87 226.106 86.986 227.933 86.986 227.933L62.321 232.32Z" fill="#D0CDE1"/>
<path d="M83.5839 169.813C90.6298 169.813 96.3417 164.903 96.3417 158.847C96.3417 152.791 90.6298 147.881 83.5839 147.881C76.538 147.881 70.8262 152.791 70.8262 158.847C70.8262 164.903 76.538 169.813 83.5839 169.813Z" fill="#FFB8B8"/>
<path d="M101.87 189.552L101.02 204.905C101.02 204.905 101.445 225.009 97.6175 226.471C95.6826 227.21 91.7958 228.694 88.2023 230.317C85.5062 231.53 82.9759 232.817 81.564 233.925C81.1897 234.198 80.8669 234.52 80.6072 234.879C78.9062 237.437 67.8494 237.072 65.2979 235.244C62.7463 233.416 64.4473 237.437 62.321 238.168C60.2628 238.878 57.4093 233.08 59.1571 224.424C59.2124 224.135 59.2762 223.843 59.3442 223.547C61.2962 215.158 58.23 195.064 58.7021 187.3C58.7296 186.707 58.802 186.116 58.919 185.531C60.1947 179.683 76.4737 167.781 79.5185 172.851C83.2693 179.109 91.885 173.392 93.3649 170.544C101.87 170.179 104.847 178.951 104.847 178.951L101.87 189.552Z" fill="#FC5C7E"/>
<path d="M136.316 239.631C136.316 239.631 129.512 241.824 127.386 241.458C125.26 241.093 123.133 242.555 123.133 244.748C123.133 246.941 120.582 252.059 124.409 252.425C128.236 252.79 143.971 252.059 147.373 253.156C147.373 253.156 162.682 253.521 161.406 248.038C160.131 242.555 153.752 242.92 153.752 242.92C153.752 242.92 136.316 242.189 136.316 239.631Z" fill="#2F2E41"/>
<path d="M186.072 240.727C186.072 240.727 186.922 238.534 188.198 238.534C189.474 238.534 199.68 239.996 200.956 239.631C202.231 239.265 217.115 238.534 214.564 244.748C212.012 250.962 203.507 251.693 203.507 251.693C203.507 251.693 188.198 250.231 186.071 250.597C183.945 250.962 176.291 250.597 177.566 248.769C178.842 246.941 186.922 243.652 186.072 240.727Z" fill="#2F2E41"/>
<path d="M147.362 188.223L149.695 196.495C149.721 196.587 149.717 196.684 149.683 196.774L139.1 225.202C139.058 225.315 138.973 225.411 138.858 225.476C138.743 225.541 138.605 225.57 138.469 225.559C138.332 225.547 138.204 225.496 138.106 225.413C138.008 225.33 137.946 225.22 137.93 225.103L136.466 214.029C136.457 213.955 136.465 213.881 136.492 213.81L146.206 188.184C146.247 188.078 146.327 187.985 146.434 187.921C146.541 187.856 146.67 187.824 146.801 187.828C146.932 187.833 147.057 187.873 147.158 187.945C147.26 188.016 147.331 188.114 147.362 188.223Z" fill="#3F3D56"/>
<path d="M146.504 188.921L148.658 196.019L139.323 221.94L137.169 213.917L146.504 188.921Z" fill="white"/>
<path d="M99.474 227.495C99.833 228.421 136.811 227.186 137.17 226.878C137.483 226.491 137.747 226.078 137.959 225.643C138.297 225.026 138.606 224.409 138.606 224.409L137.17 214.417L100.551 213.3C100.551 213.3 99.6356 221.768 99.4489 225.643C99.3853 226.26 99.3937 226.88 99.474 227.495Z" fill="#3F3D56"/>
<path opacity="0.1" d="M132.502 215.768L133.22 224.409H117.065V215.768H132.502Z" fill="black"/>
<path opacity="0.1" d="M111.68 218.546L111.777 218.529L111.321 222.249H102.346V218.546H111.68Z" fill="black"/>
<path opacity="0.1" d="M99.474 227.495C99.833 228.421 136.81 227.186 137.17 226.878C137.483 226.491 137.747 226.077 137.959 225.643H99.4489C99.3853 226.26 99.3937 226.88 99.474 227.495Z" fill="black"/>
<path d="M87.6191 141.882C90.269 141.882 92.4171 140.035 92.4171 137.757C92.4171 135.48 90.269 133.633 87.6191 133.633C84.9692 133.633 82.821 135.48 82.821 137.757C82.821 140.035 84.9692 141.882 87.6191 141.882Z" fill="#2F2E41"/>
<path d="M86.1761 142.247C86.1761 142.247 81.274 149.255 69.8751 151.879C58.4762 154.503 69.782 169.227 69.782 169.227C69.782 169.227 65.6708 163.873 71.6007 158.202C77.5305 152.532 87.0732 148.656 86.1761 142.247Z" fill="#2F2E41"/>
<path opacity="0.1" d="M88.2024 230.317C87.152 232.024 85.9188 233.797 85.7104 234.513C85.5701 234.999 84.0136 234.718 81.5641 233.925C76.6524 232.327 68.1387 228.668 60.1949 225.009C59.8287 224.842 59.4814 224.646 59.1573 224.424C59.2126 224.136 59.2764 223.843 59.3444 223.547C61.2963 215.158 58.2302 195.064 58.7022 187.3L62.3212 186.262L69.5506 192.111V216.967C69.5506 216.967 88.2619 225.74 89.5377 226.471C90.1884 226.844 89.2911 228.544 88.2024 230.317Z" fill="black"/>
<path d="M103.997 210.388L115.479 215.505C115.479 215.505 122.283 209.291 126.535 214.043C130.788 218.795 114.203 220.257 114.203 220.257C114.203 220.257 99.7441 217.333 99.3189 213.312C98.8936 209.291 103.997 210.388 103.997 210.388Z" fill="#FFB8B8"/>
<path d="M84.8599 223.912L91.6641 225.375C91.6641 225.375 99.3187 217.333 107.399 220.257C115.479 223.181 97.1924 229.03 97.1924 229.03C97.1924 229.03 87.4115 233.416 83.5842 229.761C79.7568 226.106 84.8599 223.912 84.8599 223.912Z" fill="#FFB8B8"/>
<path d="M99.7439 175.662C100.169 176.027 104.847 178.951 104.847 178.951C104.847 178.951 106.123 192.842 104.422 195.766C102.721 198.691 101.445 198.691 102.721 200.153C103.996 201.615 105.698 200.518 103.996 203.077C102.295 205.636 100.594 205.27 101.87 206.367C103.146 207.463 102.721 207.829 102.721 207.829L107.824 211.484C107.824 211.484 104.693 215.771 100.73 215.455C96.7671 215.14 93.365 198.691 93.365 198.691L99.7439 175.662Z" fill="#FC5C7E"/>
<path d="M62.3211 184.435L58.4938 185.531C58.4938 185.531 48.2876 217.698 60.1948 223.181C72.1021 228.664 85.2851 234.148 85.7103 232.685C86.1356 231.223 90.8134 225.375 89.5377 224.644C88.2619 223.912 69.5505 215.14 69.5505 215.14V190.283L62.3211 184.435Z" fill="#FC5C7E"/>
<path opacity="0.1" d="M68.0621 197.777L67.2119 215.322L89.7505 224.461L68.9127 215.322L68.0621 197.777Z" fill="black"/>
<path d="M396.055 58.4264V87.1154C396.054 87.3805 395.931 87.6345 395.713 87.8219C395.495 88.0094 395.2 88.115 394.891 88.1157H394.063V237.567C394.063 241.703 392.151 245.669 388.749 248.593C385.347 251.517 380.733 253.16 375.921 253.161H267.281C264.899 253.16 262.54 252.757 260.34 251.973C258.139 251.189 256.14 250.041 254.455 248.593C252.771 247.145 251.435 245.426 250.524 243.534C249.613 241.642 249.144 239.614 249.145 237.567V93.3573H248.545C248.327 93.3576 248.119 93.2837 247.964 93.1519C247.81 93.0201 247.723 92.841 247.722 92.654V76.3265C247.722 76.2335 247.743 76.1415 247.784 76.0556C247.826 75.9698 247.886 75.8918 247.963 75.826C248.039 75.7603 248.13 75.7082 248.23 75.6727C248.33 75.6371 248.437 75.6188 248.545 75.6188H249.145V69.4687H248.54C248.312 69.468 248.093 69.3893 247.932 69.2501C247.771 69.1109 247.681 68.9224 247.681 68.7261V52.6213C247.682 52.4257 247.772 52.2382 247.933 52.0999C248.094 51.9616 248.312 51.8836 248.54 51.8831H249.145V43.4878H248.53C248.43 43.4879 248.33 43.4711 248.238 43.4382C248.145 43.4053 248.061 43.357 247.99 43.2962C247.92 43.2353 247.864 43.163 247.825 43.0835C247.787 43.004 247.767 42.9187 247.768 42.8326V34.0442C247.767 33.8699 247.847 33.7026 247.99 33.5789C248.133 33.4553 248.327 33.3854 248.53 33.3846H249.145V15.5894C249.145 11.4549 251.056 7.48974 254.457 4.56619C257.858 1.64265 262.471 0.00015059 267.281 1.59553e-10H375.921C380.732 -1.86913e-05 385.346 1.64228 388.748 4.56574C392.15 7.4892 394.062 11.4544 394.063 15.5894V57.4261H394.891C395.2 57.4268 395.495 57.5324 395.713 57.7199C395.931 57.9073 396.054 58.1613 396.055 58.4264Z" fill="#3F3D56"/>
<path d="M326.835 7.99634H309.182C308.469 7.99634 307.89 8.49345 307.89 9.10666V10.4182C307.89 11.0315 308.469 11.5286 309.182 11.5286H326.835C327.549 11.5286 328.127 11.0315 328.127 10.4182V9.10666C328.127 8.49345 327.549 7.99634 326.835 7.99634Z" fill="#E6E8EC"/>
<path d="M333.518 11.7659C334.805 11.7659 335.849 10.8689 335.849 9.76245C335.849 8.65599 334.805 7.75903 333.518 7.75903C332.231 7.75903 331.187 8.65599 331.187 9.76245C331.187 10.8689 332.231 11.7659 333.518 11.7659Z" fill="#E6E8EC"/>
<path d="M385.376 18.6731V238.86C385.375 241.483 384.161 243.998 382.003 245.852C379.845 247.707 376.918 248.749 373.866 248.749H269.87C268.358 248.751 266.861 248.497 265.464 248.001C264.066 247.505 262.797 246.776 261.727 245.858C260.658 244.939 259.81 243.848 259.232 242.647C258.655 241.446 258.358 240.159 258.36 238.86V18.6731C258.36 17.3738 258.658 16.0873 259.236 14.8869C259.815 13.6865 260.662 12.5959 261.731 11.6772C262.8 10.7585 264.069 10.0297 265.465 9.53253C266.862 9.03535 268.359 8.77949 269.87 8.77954H285.435V10.4962C285.435 12.6567 286.434 14.7287 288.211 16.2565C289.988 17.7842 292.399 18.6425 294.913 18.6425H347.802C350.316 18.6425 352.726 17.7842 354.504 16.2565C356.281 14.7287 357.28 12.6567 357.28 10.4962V8.77954H373.866C375.378 8.77912 376.875 9.03474 378.271 9.53178C379.668 10.0288 380.937 10.7576 382.006 11.6763C383.075 12.5951 383.923 13.6859 384.501 14.8865C385.079 16.087 385.376 17.3737 385.376 18.6731Z" fill="white"/>
<path d="M374.929 153.736H269.231V165.529H374.929V153.736Z" fill="#E6E6E6"/>
<path d="M374.929 174.702H269.231V186.496H374.929V174.702Z" fill="#E6E6E6"/>
<path d="M374.929 195.668H269.231V207.462H374.929V195.668Z" fill="#E6E6E6"/>
<path d="M363.241 48.4668C368.854 48.4668 373.405 44.5556 373.405 39.7308C373.405 34.9061 368.854 30.9949 363.241 30.9949C357.628 30.9949 353.078 34.9061 353.078 39.7308C353.078 44.5556 357.628 48.4668 363.241 48.4668Z" fill="#FC5C7E"/>
<path d="M374.717 68.9963H269.019V129.275H374.717V68.9963Z" fill="#E6E6E6"/>
<path d="M311.108 102.888C314.194 112.694 324.765 118.768 324.765 118.768C324.765 118.768 330.332 108.942 327.246 99.1356C324.16 89.3293 313.589 83.2561 313.589 83.2561C313.589 83.2561 308.022 93.0819 311.108 102.888Z" fill="#3F3D56"/>
<path d="M315.643 100.781C324.112 107.867 325.146 118.76 325.146 118.76C325.146 118.76 312.45 118.164 303.982 111.078C295.513 103.992 294.479 93.0989 294.479 93.0989C294.479 93.0989 307.175 93.6947 315.643 100.781Z" fill="#FC5C7E"/>
<path d="M339.184 102.888C336.098 112.694 325.527 118.768 325.527 118.768C325.527 118.768 319.96 108.942 323.046 99.1357C326.132 89.3295 336.703 83.2563 336.703 83.2563C336.703 83.2563 342.27 93.0821 339.184 102.888Z" fill="#3F3D56"/>
<path d="M334.649 100.781C326.18 107.867 325.146 118.76 325.146 118.76C325.146 118.76 337.842 118.164 346.31 111.078C354.779 103.992 355.813 93.0989 355.813 93.0989C355.813 93.0989 343.117 93.6947 334.649 100.781Z" fill="#FC5C7E"/>
<path d="M451.75 252.681H0.5V253.66H451.75V252.681Z" fill="#FAFAFA"/>
</svg>
