<svg width="14" height="9" viewBox="0 0 14 9" fill="none" xmlns="http://www.w3.org/2000/svg">
<path d="M8.5053 3.74828C8.54709 3.96913 8.57691 4.18997 8.57691 4.47645C8.57691 6.97733 6.89972 8.75 4.375 8.75C1.95772 8.75 0 6.7923 0 4.375C0 1.9577 1.95772 0 4.375 0C5.5568 0 6.5416 0.42973 7.30559 1.14598L6.11782 2.28598C5.79551 1.97561 5.22851 1.61153 4.375 1.61153C2.88285 1.61153 1.66523 2.84703 1.66523 4.375C1.66523 5.90297 2.88285 7.13847 4.375 7.13847C6.10588 7.13847 6.75648 5.89103 6.85793 5.25237H4.375V3.74826H8.5053V3.74828ZM12.73 3.89496V2.625H11.454V3.89496H10.184V5.17102H11.454V6.44098H12.73V5.17102H14V3.89496H12.73Z" fill="#FC5C7E"/>
</svg>
