<svg width="14" height="13" viewBox="0 0 14 13" fill="none" xmlns="http://www.w3.org/2000/svg">
<path d="M7.00272 2.92433C5.29915 2.92433 3.92505 4.29844 3.92505 6.00201C3.92505 7.70558 5.29915 9.07969 7.00272 9.07969C8.70628 9.07969 10.0804 7.70558 10.0804 6.00201C10.0804 4.29844 8.70628 2.92433 7.00272 2.92433ZM7.00272 8.0029C5.90183 8.0029 5.00183 7.10558 5.00183 6.00201C5.00183 4.89844 5.89915 4.00112 7.00272 4.00112C8.10629 4.00112 9.00361 4.89844 9.00361 6.00201C9.00361 7.10558 8.10361 8.0029 7.00272 8.0029ZM10.9241 2.79844C10.9241 3.19754 10.6027 3.5163 10.2063 3.5163C9.80718 3.5163 9.48843 3.19487 9.48843 2.79844C9.48843 2.40201 9.80985 2.08058 10.2063 2.08058C10.6027 2.08058 10.9241 2.40201 10.9241 2.79844ZM12.9625 3.52701C12.917 2.5654 12.6973 1.71362 11.9929 1.01183C11.2911 0.310045 10.4393 0.0904018 9.47771 0.0421875C8.48664 -0.0140625 5.51612 -0.0140625 4.52505 0.0421875C3.56612 0.0877232 2.71434 0.307366 2.00987 1.00915C1.30541 1.71094 1.08845 2.56272 1.04023 3.52433C0.983984 4.5154 0.983984 7.48594 1.04023 8.47701C1.08577 9.43862 1.30541 10.2904 2.00987 10.9922C2.71434 11.694 3.56344 11.9136 4.52505 11.9618C5.51612 12.0181 8.48664 12.0181 9.47771 11.9618C10.4393 11.9163 11.2911 11.6967 11.9929 10.9922C12.6947 10.2904 12.9143 9.43862 12.9625 8.47701C13.0188 7.48594 13.0188 4.51808 12.9625 3.52701ZM11.6822 9.5404C11.4732 10.0654 11.0688 10.4699 10.5411 10.6815C9.75093 10.9949 7.87593 10.9225 7.00272 10.9225C6.12951 10.9225 4.25183 10.9922 3.46433 10.6815C2.93934 10.4725 2.53487 10.0681 2.32327 9.5404C2.00987 8.75022 2.0822 6.87522 2.0822 6.00201C2.0822 5.1288 2.01255 3.25112 2.32327 2.46362C2.53219 1.93862 2.93666 1.53415 3.46433 1.32254C4.25451 1.00915 6.12951 1.08147 7.00272 1.08147C7.87593 1.08147 9.7536 1.01183 10.5411 1.32254C11.0661 1.53147 11.4706 1.93594 11.6822 2.46362C11.9956 3.25379 11.9232 5.1288 11.9232 6.00201C11.9232 6.87522 11.9956 8.7529 11.6822 9.5404Z" fill="#FC5C7E"/>
</svg>
