<svg width="69" height="44" viewBox="0 0 69 44" fill="none" xmlns="http://www.w3.org/2000/svg">
<path d="M1.43317 6.59446C1.43317 6.59446 5.41473 -5.35024 8.73271 6.59446M8.73271 6.59446C12.0507 18.5392 8.73271 36.4562 8.73271 36.4562C8.73271 36.4562 1.43317 7.25806 8.73271 6.59446ZM8.73271 6.59446C16.0322 5.93087 54.0476 26.7189 55.1843 6.59445" stroke="white" stroke-width="2"/>
<path d="M20.8906 28.6771C20.8906 29.0228 20.8115 29.348 20.6533 29.6526C20.4951 29.9573 20.2812 30.221 20.0117 30.4437C19.7422 30.6663 19.4258 30.8421 19.0625 30.971C18.6992 31.0999 18.3125 31.1644 17.9023 31.1644C17.627 31.1644 17.3486 31.1263 17.0674 31.0501C16.7861 30.9739 16.5166 30.848 16.2588 30.6722C16.001 30.4964 15.7578 30.265 15.5293 29.9778C15.3008 29.6907 15.1016 29.3392 14.9316 28.9232C14.7676 28.5071 14.6357 28.0208 14.5361 27.4642C14.4424 26.9017 14.3955 26.2571 14.3955 25.5306C14.3955 24.845 14.4424 24.2386 14.5361 23.7112C14.6357 23.1839 14.7676 22.7239 14.9316 22.3314C15.1016 21.9388 15.2979 21.6107 15.5205 21.347C15.7432 21.0775 15.9805 20.8607 16.2324 20.6966C16.4902 20.5267 16.7539 20.4066 17.0234 20.3362C17.2988 20.2659 17.5684 20.2308 17.832 20.2308C18.2246 20.2308 18.5967 20.2952 18.9482 20.4241C19.2998 20.5472 19.6074 20.7318 19.8711 20.9778C20.1348 21.2239 20.3428 21.5286 20.4951 21.8919C20.6533 22.2493 20.7324 22.6624 20.7324 23.1312C20.7324 23.553 20.6445 23.9808 20.4688 24.4144C20.2988 24.8421 20.0439 25.2493 19.7041 25.636C19.3643 26.0169 18.9424 26.3655 18.4385 26.6819C17.9404 26.9925 17.3662 27.2386 16.7158 27.4202C16.751 27.7835 16.8008 28.1146 16.8652 28.4134C16.9355 28.7122 17.0205 28.9671 17.1201 29.178C17.2256 29.389 17.3457 29.553 17.4805 29.6702C17.6211 29.7874 17.7822 29.846 17.9639 29.846C18.0811 29.8401 18.1924 29.8196 18.2979 29.7845C18.3916 29.7552 18.4854 29.7083 18.5791 29.6439C18.6787 29.5794 18.7607 29.4857 18.8252 29.3626C18.6729 29.2923 18.5557 29.2015 18.4736 29.0901C18.3916 28.9788 18.3301 28.8734 18.2891 28.7737C18.2422 28.6566 18.2158 28.5335 18.21 28.4046C18.21 28.1234 18.2656 27.8948 18.377 27.7191C18.4883 27.5433 18.6201 27.4056 18.7725 27.306C18.9248 27.2064 19.0801 27.139 19.2383 27.1038C19.3965 27.0628 19.5225 27.0423 19.6162 27.0423C19.7158 27.0423 19.8359 27.0628 19.9766 27.1038C20.123 27.1448 20.2637 27.2239 20.3984 27.3411C20.5332 27.4583 20.6475 27.6253 20.7412 27.8421C20.8408 28.053 20.8906 28.3314 20.8906 28.6771ZM18.7197 23.1487C18.7197 22.9378 18.6992 22.7386 18.6582 22.5511C18.623 22.3577 18.5674 22.1907 18.4912 22.0501C18.4209 21.9095 18.3301 21.7982 18.2188 21.7161C18.1133 21.6282 17.9902 21.5843 17.8496 21.5843C17.6094 21.5843 17.4131 21.6956 17.2607 21.9183C17.1084 22.1351 16.9854 22.4251 16.8916 22.7884C16.7979 23.1517 16.7334 23.5706 16.6982 24.0452C16.6631 24.5198 16.6455 25.015 16.6455 25.5306V26.1722C16.9443 26.014 17.2197 25.8265 17.4717 25.6097C17.7295 25.3929 17.9492 25.1556 18.1309 24.8978C18.3184 24.6341 18.4619 24.3558 18.5615 24.0628C18.667 23.7698 18.7197 23.4651 18.7197 23.1487ZM27.5615 25.9788C27.5615 26.3304 27.5586 26.638 27.5527 26.9017C27.5469 27.1595 27.5381 27.3968 27.5264 27.6136C27.5205 27.8245 27.5088 28.0267 27.4912 28.22C27.4795 28.4075 27.4648 28.6097 27.4473 28.8265C27.4297 29.0374 27.4092 29.2776 27.3857 29.5472C27.3623 29.8109 27.3359 30.1214 27.3066 30.4788L25.3291 30.4964C25.4111 29.553 25.4697 28.6478 25.5049 27.7806C25.5459 26.9075 25.5664 26.0433 25.5664 25.1878C25.5664 24.3734 25.4902 23.7786 25.3379 23.4036C25.1914 23.0286 24.9658 22.8411 24.6611 22.8411C24.5439 22.8763 24.4297 22.9554 24.3184 23.0784C24.2188 23.1839 24.1162 23.345 24.0107 23.5618C23.9111 23.7786 23.8232 24.0804 23.7471 24.4671C23.7354 24.7542 23.7295 25.0384 23.7295 25.3196C23.7295 25.595 23.7295 25.8675 23.7295 26.137C23.7295 26.4534 23.7295 26.7757 23.7295 27.1038C23.7354 27.4319 23.7383 27.7835 23.7383 28.1585C23.7441 28.5335 23.75 28.9378 23.7559 29.3714C23.7617 29.7991 23.7705 30.2708 23.7822 30.7864L21.7783 30.7425C21.8193 30.0687 21.8545 29.4681 21.8838 28.9407C21.9131 28.4134 21.9365 27.9271 21.9541 27.4818C21.9775 27.0364 21.9922 26.6146 21.998 26.2161C22.0098 25.8177 22.0156 25.4075 22.0156 24.9857C22.0156 24.7044 22.0127 24.4173 22.0068 24.1243C22.0068 23.8255 22.001 23.5062 21.9893 23.1663C21.9834 22.8265 21.9746 22.4632 21.9629 22.0765C21.9512 21.6839 21.9395 21.2562 21.9277 20.7933L23.9229 20.8284L23.8701 21.6546C24.04 21.3206 24.2188 21.0628 24.4062 20.8812C24.5938 20.6995 24.7695 20.5677 24.9336 20.4857C25.0977 20.4036 25.2354 20.3568 25.3467 20.345C25.4639 20.3333 25.5371 20.3275 25.5664 20.3275C25.7422 20.3275 25.9092 20.3509 26.0674 20.3978C26.2314 20.4446 26.3838 20.5325 26.5244 20.6614C26.6709 20.7903 26.8027 20.9691 26.9199 21.1976C27.043 21.4261 27.1484 21.722 27.2363 22.0853C27.3945 21.64 27.5908 21.2972 27.8252 21.0569C28.0596 20.8167 28.2881 20.6439 28.5107 20.5384C28.7393 20.4271 28.9385 20.3655 29.1084 20.3538C29.2842 20.3362 29.3867 20.3275 29.416 20.3275C29.791 20.3275 30.1074 20.4417 30.3652 20.6702C30.623 20.8987 30.8281 21.2474 30.9805 21.7161C31.1328 22.1849 31.2412 22.7737 31.3057 23.4827C31.376 24.1917 31.4111 25.0237 31.4111 25.9788C31.4111 26.2952 31.3965 26.6614 31.3672 27.0775C31.3379 27.4935 31.2998 27.9241 31.2529 28.3694C31.2061 28.8089 31.1562 29.2454 31.1035 29.679C31.0508 30.1126 31.0039 30.4993 30.9629 30.8392L28.9854 30.7689C29.085 30.1419 29.1611 29.5472 29.2139 28.9847C29.2725 28.4163 29.3164 27.9124 29.3457 27.473C29.375 26.9632 29.3926 26.4886 29.3984 26.0491C29.3984 25.4925 29.3838 25.012 29.3545 24.6077C29.3311 24.2034 29.2842 23.8724 29.2139 23.6146C29.1436 23.3509 29.0469 23.1575 28.9238 23.0345C28.8008 22.9056 28.6455 22.8411 28.458 22.8411C28.335 22.8763 28.2178 22.9437 28.1064 23.0433C28.0068 23.1253 27.9014 23.2513 27.79 23.4212C27.6846 23.5853 27.5908 23.8079 27.5088 24.0892C27.5439 24.6282 27.5615 25.2581 27.5615 25.9788ZM35.0586 17.3392C34.9883 18.1068 34.9268 18.8685 34.874 19.6243C34.8213 20.3743 34.7744 21.1302 34.7334 21.8919C34.9326 21.5345 35.1465 21.2591 35.375 21.0657C35.6035 20.8665 35.8174 20.72 36.0166 20.6263C36.251 20.5208 36.4795 20.4564 36.7021 20.4329C37.124 20.4329 37.499 20.5208 37.8271 20.6966C38.1553 20.8724 38.4307 21.1741 38.6533 21.6019C38.8818 22.0237 39.0547 22.5892 39.1719 23.2982C39.2891 24.0013 39.3477 24.8831 39.3477 25.9437C39.3477 26.9222 39.2539 27.7454 39.0664 28.4134C38.8848 29.0755 38.6475 29.6116 38.3545 30.0218C38.0674 30.4261 37.7451 30.7161 37.3877 30.8919C37.0361 31.0735 36.6875 31.1644 36.3418 31.1644C36.3066 31.1644 36.2275 31.1556 36.1045 31.138C35.9873 31.1263 35.8438 31.0823 35.6738 31.0062C35.5039 30.9359 35.3223 30.8275 35.1289 30.681C34.9355 30.5345 34.751 30.3294 34.5752 30.0657V31.0325L32.5977 30.9974C32.6504 30.1419 32.6855 29.2894 32.7031 28.4398C32.7266 27.5901 32.7383 26.7405 32.7383 25.8909C32.7383 24.4612 32.7148 23.0433 32.668 21.637C32.6211 20.2249 32.5654 18.804 32.501 17.3743L35.0586 17.3392ZM35.6914 29.5384C35.7207 29.5501 35.75 29.556 35.7793 29.556C35.8145 29.556 35.8496 29.556 35.8848 29.556C36.043 29.556 36.207 29.5032 36.377 29.3978C36.5527 29.2864 36.7109 29.0931 36.8516 28.8177C36.9922 28.5423 37.1094 28.1702 37.2031 27.7015C37.2969 27.2269 37.3438 26.6234 37.3438 25.8909C37.3438 25.2347 37.3115 24.6898 37.2471 24.2562C37.1885 23.8167 37.1064 23.4651 37.001 23.2015C36.8955 22.9378 36.7725 22.7532 36.6318 22.6478C36.4912 22.5364 36.3447 22.4808 36.1924 22.4808C36.0342 22.4808 35.8877 22.5247 35.7529 22.6126C35.624 22.6946 35.5068 22.806 35.4014 22.9466C35.2959 23.0814 35.1992 23.2366 35.1113 23.4124C35.0293 23.5882 34.9561 23.764 34.8916 23.9398C34.8271 24.1097 34.7715 24.2767 34.7246 24.4407C34.6836 24.5989 34.6514 24.7337 34.6279 24.845C34.5928 25.9993 34.5752 27.1448 34.5752 28.2816C34.71 28.5628 34.8447 28.7855 34.9795 28.9495C35.1143 29.1136 35.2344 29.2396 35.3398 29.3275C35.4629 29.4329 35.5801 29.5032 35.6914 29.5384ZM44.7178 30.6546C44.7295 30.4202 44.7412 30.1976 44.7529 29.9866C44.7705 29.7698 44.7881 29.5618 44.8057 29.3626C44.6064 29.7142 44.3926 29.9837 44.1641 30.1712C43.9414 30.3587 43.7334 30.4993 43.54 30.5931C43.3115 30.6985 43.0859 30.763 42.8633 30.7864C42.4297 30.7864 42.0518 30.678 41.7295 30.4612C41.4072 30.2444 41.1406 29.9368 40.9297 29.5384C40.7188 29.14 40.5605 28.6624 40.4551 28.1058C40.3555 27.5433 40.3057 26.9163 40.3057 26.2249C40.3057 25.2581 40.335 24.3206 40.3936 23.4124C40.458 22.5042 40.5605 21.6136 40.7012 20.7405L42.9336 20.9866C42.793 21.6839 42.6846 22.3079 42.6084 22.8587C42.5381 23.4036 42.4854 23.8694 42.4502 24.2562C42.4092 24.7073 42.3857 25.0999 42.3799 25.4339C42.3799 25.9905 42.3975 26.4769 42.4326 26.8929C42.4678 27.303 42.5293 27.6458 42.6172 27.9212C42.7109 28.1907 42.8369 28.3929 42.9951 28.5276C43.1533 28.6624 43.3555 28.7298 43.6016 28.7298C43.7715 28.7005 43.9385 28.5833 44.1025 28.3782C44.1729 28.2903 44.2461 28.179 44.3223 28.0443C44.3984 27.9036 44.4746 27.7337 44.5508 27.5345C44.627 27.3353 44.7002 27.1009 44.7705 26.8314C44.8408 26.5618 44.9082 26.2484 44.9727 25.8909C44.9844 25.5452 44.9902 25.2025 44.9902 24.8626C44.9902 24.5169 44.9902 24.1448 44.9902 23.7464C44.9902 23.3245 44.9902 22.8646 44.9902 22.3665C44.9902 21.8685 44.9844 21.3089 44.9727 20.6878L46.9678 20.723C46.9385 21.1683 46.915 21.5814 46.8975 21.9622C46.8799 22.3372 46.8652 22.6917 46.8535 23.0257C46.8477 23.3538 46.8418 23.6644 46.8359 23.9573C46.8301 24.2503 46.8271 24.5345 46.8271 24.8099C46.8271 25.2318 46.8301 25.6448 46.8359 26.0491C46.8477 26.4534 46.8623 26.8841 46.8799 27.3411C46.8975 27.7923 46.915 28.2903 46.9326 28.8353C46.9561 29.3743 46.9795 29.9925 47.0029 30.6898L44.7178 30.6546ZM54.8779 30.5843L52.4697 30.9622C52.2881 30.4349 52.0977 29.9222 51.8984 29.4241C51.6992 28.9202 51.4883 28.4193 51.2656 27.9212C51.0957 28.3724 50.9346 28.8382 50.7822 29.3187C50.6357 29.7933 50.4893 30.2943 50.3428 30.8216L47.6973 30.5491C48.166 29.7112 48.6143 28.9144 49.042 28.1585C49.4756 27.3968 49.8916 26.6321 50.29 25.8646C49.8857 25.0501 49.4609 24.2474 49.0156 23.4564C48.5703 22.6595 48.1133 21.845 47.6445 21.013L50.1846 20.8987C50.3486 21.4261 50.5156 21.9329 50.6855 22.4193C50.8613 22.9056 51.0488 23.3773 51.248 23.8343C51.4473 23.3948 51.6348 22.9407 51.8105 22.472C51.9922 22.0032 52.1621 21.5169 52.3203 21.013L54.79 21.2591C54.2568 22.0618 53.7734 22.8294 53.3398 23.5618C52.9062 24.2943 52.5137 25.0325 52.1621 25.7767C52.5664 26.5735 52.9941 27.3646 53.4453 28.1497C53.9023 28.9349 54.3799 29.7464 54.8779 30.5843Z" fill="white"/>
</svg>
