<svg width="12" height="10" viewBox="0 0 12 10" fill="none" xmlns="http://www.w3.org/2000/svg">
<path d="M10.7665 2.42893C10.7741 2.53553 10.7741 2.64214 10.7741 2.74874C10.7741 6 8.29953 9.74622 3.77666 9.74622C2.38325 9.74622 1.08884 9.34265 0 8.64217C0.197977 8.665 0.388314 8.67261 0.593909 8.67261C1.74364 8.67261 2.80203 8.2843 3.64722 7.62186C2.56599 7.59901 1.6599 6.89089 1.34771 5.91626C1.50001 5.93909 1.65228 5.95432 1.81219 5.95432C2.033 5.95432 2.25383 5.92385 2.4594 5.87058C1.3325 5.64213 0.487291 4.65229 0.487291 3.45686V3.42641C0.814691 3.60915 1.19543 3.72337 1.59896 3.73858C0.936519 3.29694 0.502525 2.54314 0.502525 1.69034C0.502525 1.2335 0.624331 0.814714 0.837542 0.449228C2.04821 1.94162 3.86802 2.91622 5.90862 3.02284C5.87055 2.8401 5.8477 2.64976 5.8477 2.4594C5.8477 1.10405 6.94416 0 8.3071 0C9.01522 0 9.65481 0.296954 10.1041 0.776652C10.6599 0.670057 11.1929 0.464463 11.665 0.182743C11.4822 0.753823 11.0939 1.23352 10.5838 1.53807C11.0787 1.48479 11.5584 1.34771 12 1.15737C11.665 1.64466 11.2462 2.07866 10.7665 2.42893Z" fill="#FC5C7E"/>
</svg>
