<svg width="310" height="280" viewBox="0 0 310 280" fill="none" xmlns="http://www.w3.org/2000/svg">
<circle r="5" transform="matrix(-1 0 0 1 5 5)" fill="#F8F8FB"/>
<circle r="5" transform="matrix(-1 0 0 1 5 35)" fill="#F8F8FB"/>
<circle r="5" transform="matrix(-1 0 0 1 5 65)" fill="#F8F8FB"/>
<circle r="5" transform="matrix(-1 0 0 1 5 95)" fill="#F8F8FB"/>
<circle r="5" transform="matrix(-1 0 0 1 5 125)" fill="#F8F8FB"/>
<circle r="5" transform="matrix(-1 0 0 1 5 155)" fill="#F8F8FB"/>
<circle r="5" transform="matrix(-1 0 0 1 5 185)" fill="#F8F8FB"/>
<circle r="5" transform="matrix(-1 0 0 1 125 5)" fill="#F8F8FB"/>
<circle r="5" transform="matrix(-1 0 0 1 125 35)" fill="#F8F8FB"/>
<circle r="5" transform="matrix(-1 0 0 1 125 65)" fill="#F8F8FB"/>
<circle r="5" transform="matrix(-1 0 0 1 125 95)" fill="#F8F8FB"/>
<circle r="5" transform="matrix(-1 0 0 1 125 125)" fill="#F8F8FB"/>
<circle r="5" transform="matrix(-1 0 0 1 125 155)" fill="#F8F8FB"/>
<circle r="5" transform="matrix(-1 0 0 1 125 185)" fill="#F8F8FB"/>
<circle r="5" transform="matrix(-1 0 0 1 125 215)" fill="#F8F8FB"/>
<circle r="5" transform="matrix(-1 0 0 1 65 5)" fill="#F8F8FB"/>
<circle r="5" transform="matrix(-1 0 0 1 65 35)" fill="#F8F8FB"/>
<circle r="5" transform="matrix(-1 0 0 1 65 65)" fill="#F8F8FB"/>
<circle r="5" transform="matrix(-1 0 0 1 65 95)" fill="#F8F8FB"/>
<circle r="5" transform="matrix(-1 0 0 1 65 125)" fill="#F8F8FB"/>
<circle r="5" transform="matrix(-1 0 0 1 65 155)" fill="#F8F8FB"/>
<circle r="5" transform="matrix(-1 0 0 1 65 185)" fill="#F8F8FB"/>
<circle r="5" transform="matrix(-1 0 0 1 65 215)" fill="#F8F8FB"/>
<circle r="5" transform="matrix(-1 0 0 1 185 5)" fill="#F8F8FB"/>
<circle r="5" transform="matrix(-1 0 0 1 185 35)" fill="#F8F8FB"/>
<circle r="5" transform="matrix(-1 0 0 1 185 65)" fill="#F8F8FB"/>
<circle r="5" transform="matrix(-1 0 0 1 185 95)" fill="#F8F8FB"/>
<circle r="5" transform="matrix(-1 0 0 1 185 125)" fill="#F8F8FB"/>
<circle r="5" transform="matrix(-1 0 0 1 185 155)" fill="#F8F8FB"/>
<circle r="5" transform="matrix(-1 0 0 1 185 185)" fill="#F8F8FB"/>
<circle r="5" transform="matrix(-1 0 0 1 185 215)" fill="#F8F8FB"/>
<circle r="5" transform="matrix(-1 0 0 1 275 5)" fill="#F8F8FB"/>
<circle r="5" transform="matrix(-1 0 0 1 275 35)" fill="#F8F8FB"/>
<circle r="5" transform="matrix(-1 0 0 1 275 65)" fill="#F8F8FB"/>
<circle r="5" transform="matrix(-1 0 0 1 275 95)" fill="#F8F8FB"/>
<circle r="5" transform="matrix(-1 0 0 1 275 125)" fill="#F8F8FB"/>
<circle r="5" transform="matrix(-1 0 0 1 275 155)" fill="#F8F8FB"/>
<circle r="5" transform="matrix(-1 0 0 1 275 185)" fill="#F8F8FB"/>
<circle r="5" transform="matrix(-1 0 0 1 275 215)" fill="#F8F8FB"/>
<circle r="5" transform="matrix(-1 0 0 1 35 5)" fill="#F8F8FB"/>
<circle r="5" transform="matrix(-1 0 0 1 35 35)" fill="#F8F8FB"/>
<circle r="5" transform="matrix(-1 0 0 1 35 65)" fill="#F8F8FB"/>
<circle r="5" transform="matrix(-1 0 0 1 35 95)" fill="#F8F8FB"/>
<circle r="5" transform="matrix(-1 0 0 1 35 125)" fill="#F8F8FB"/>
<circle r="5" transform="matrix(-1 0 0 1 35 155)" fill="#F8F8FB"/>
<circle r="5" transform="matrix(-1 0 0 1 35 185)" fill="#F8F8FB"/>
<circle r="5" transform="matrix(-1 0 0 1 35 215)" fill="#F8F8FB"/>
<circle r="5" transform="matrix(-1 0 0 1 155 5)" fill="#F8F8FB"/>
<circle r="5" transform="matrix(-1 0 0 1 155 35)" fill="#F8F8FB"/>
<circle r="5" transform="matrix(-1 0 0 1 155 65)" fill="#F8F8FB"/>
<circle r="5" transform="matrix(-1 0 0 1 155 95)" fill="#F8F8FB"/>
<circle r="5" transform="matrix(-1 0 0 1 155 125)" fill="#F8F8FB"/>
<circle r="5" transform="matrix(-1 0 0 1 155 155)" fill="#F8F8FB"/>
<circle r="5" transform="matrix(-1 0 0 1 155 185)" fill="#F8F8FB"/>
<circle r="5" transform="matrix(-1 0 0 1 155 215)" fill="#F8F8FB"/>
<circle r="5" transform="matrix(-1 0 0 1 245 5)" fill="#F8F8FB"/>
<circle r="5" transform="matrix(-1 0 0 1 245 35)" fill="#F8F8FB"/>
<circle r="5" transform="matrix(-1 0 0 1 245 65)" fill="#F8F8FB"/>
<circle r="5" transform="matrix(-1 0 0 1 245 95)" fill="#F8F8FB"/>
<circle r="5" transform="matrix(-1 0 0 1 245 125)" fill="#F8F8FB"/>
<circle r="5" transform="matrix(-1 0 0 1 245 155)" fill="#F8F8FB"/>
<circle r="5" transform="matrix(-1 0 0 1 245 185)" fill="#F8F8FB"/>
<circle r="5" transform="matrix(-1 0 0 1 245 215)" fill="#F8F8FB"/>
<circle r="5" transform="matrix(-1 0 0 1 95 5)" fill="#F8F8FB"/>
<circle r="5" transform="matrix(-1 0 0 1 95 35)" fill="#F8F8FB"/>
<circle r="5" transform="matrix(-1 0 0 1 95 65)" fill="#F8F8FB"/>
<circle r="5" transform="matrix(-1 0 0 1 95 95)" fill="#F8F8FB"/>
<circle r="5" transform="matrix(-1 0 0 1 95 125)" fill="#F8F8FB"/>
<circle r="5" transform="matrix(-1 0 0 1 95 155)" fill="#F8F8FB"/>
<circle r="5" transform="matrix(-1 0 0 1 95 185)" fill="#F8F8FB"/>
<circle r="5" transform="matrix(-1 0 0 1 95 215)" fill="#F8F8FB"/>
<circle r="5" transform="matrix(-1 0 0 1 215 5)" fill="#F8F8FB"/>
<circle r="5" transform="matrix(-1 0 0 1 215 35)" fill="#F8F8FB"/>
<circle r="5" transform="matrix(-1 0 0 1 215 65)" fill="#F8F8FB"/>
<circle r="5" transform="matrix(-1 0 0 1 215 95)" fill="#F8F8FB"/>
<circle r="5" transform="matrix(-1 0 0 1 215 125)" fill="#F8F8FB"/>
<circle r="5" transform="matrix(-1 0 0 1 215 155)" fill="#F8F8FB"/>
<circle r="5" transform="matrix(-1 0 0 1 215 185)" fill="#F8F8FB"/>
<circle r="5" transform="matrix(-1 0 0 1 215 215)" fill="#F8F8FB"/>
<circle r="5" transform="matrix(-1 0 0 1 305 5)" fill="#F8F8FB"/>
<circle r="5" transform="matrix(-1 0 0 1 305 35)" fill="#F8F8FB"/>
<circle r="5" transform="matrix(-1 0 0 1 305 65)" fill="#F8F8FB"/>
<circle r="5" transform="matrix(-1 0 0 1 305 95)" fill="#F8F8FB"/>
<circle r="5" transform="matrix(-1 0 0 1 305 125)" fill="#F8F8FB"/>
<circle r="5" transform="matrix(-1 0 0 1 305 245)" fill="#F8F8FB"/>
<circle r="5" transform="matrix(-1 0 0 1 215 245)" fill="#F8F8FB"/>
<circle r="5" transform="matrix(-1 0 0 1 275 245)" fill="#F8F8FB"/>
<circle r="5" transform="matrix(-1 0 0 1 185 245)" fill="#F8F8FB"/>
<circle r="5" transform="matrix(-1 0 0 1 245 245)" fill="#F8F8FB"/>
<circle r="5" transform="matrix(-1 0 0 1 155 245)" fill="#F8F8FB"/>
<circle r="5" transform="matrix(-1 0 0 1 125 245)" fill="#F8F8FB"/>
<circle r="5" transform="matrix(-1 0 0 1 95 245)" fill="#F8F8FB"/>
<circle r="5" transform="matrix(-1 0 0 1 65 245)" fill="#F8F8FB"/>
<circle r="5" transform="matrix(-1 0 0 1 305 155)" fill="#F8F8FB"/>
<circle r="5" transform="matrix(-1 0 0 1 215 275)" fill="#F8F8FB"/>
<circle r="5" transform="matrix(-1 0 0 1 185 275)" fill="#F8F8FB"/>
<circle r="5" transform="matrix(-1 0 0 1 155 275)" fill="#F8F8FB"/>
<circle r="5" transform="matrix(-1 0 0 1 125 275)" fill="#F8F8FB"/>
<circle r="5" transform="matrix(-1 0 0 1 95 275)" fill="#F8F8FB"/>
<circle r="5" transform="matrix(-1 0 0 1 305 185)" fill="#F8F8FB"/>
<circle r="5" transform="matrix(-1 0 0 1 305 215)" fill="#F8F8FB"/>
</svg>
