<svg width="1083" height="490" viewBox="0 0 1083 490" fill="none" xmlns="http://www.w3.org/2000/svg">
<path d="M220.813 122.764L1082.11 0V489.913H99.1671C51.7313 491.74 20.3113 464.408 10.5307 450.514C-8.54141 419.909 2.58398 381.043 10.5307 365.436L110.781 181.005C142.568 137.61 197.38 124.096 220.813 122.764Z" fill="#FC5C7E"/>
<path d="M220.813 122.764L1082.11 0V489.913H99.1671C51.7313 491.74 20.3113 464.408 10.5307 450.514C-8.54141 419.909 2.58398 381.043 10.5307 365.436L110.781 181.005C142.568 137.61 197.38 124.096 220.813 122.764Z" fill="url(#paint0_linear)"/>
<path d="M888.336 203.845C800.922 282.071 808.054 427.484 829.041 489.342H878.556C857.161 351.732 889.762 275.409 912.176 252.379C964.502 185.687 1046.46 169.014 1080.89 169.014V117.625C971.349 131.329 922.568 169.014 888.336 203.845Z" fill="#FFAFBF" fill-opacity="0.2"/>
<path d="M950.821 267.129C891.219 328.172 896.081 441.643 910.392 489.913H944.152C929.564 382.531 951.794 322.973 967.076 305.002C1002.75 252.96 1058.63 239.949 1082.11 239.949V199.848C1007.42 210.542 974.162 239.949 950.821 267.129Z" fill="#FFAFBF" fill-opacity="0.2"/>
<path d="M1010.26 342.559C977.637 382.934 980.299 457.986 988.131 489.913H1006.61C998.624 418.888 1010.79 379.496 1019.15 367.609C1038.68 333.188 1069.26 324.582 1082.11 324.582V298.059C1041.24 305.132 1023.03 324.582 1010.26 342.559Z" fill="#FFAFBF" fill-opacity="0.2"/>
<defs>
<linearGradient id="paint0_linear" x1="56.9884" y1="290.636" x2="1082.11" y2="284.092" gradientUnits="userSpaceOnUse">
<stop stop-color="#FE7E68"/>
<stop offset="0.564209" stop-color="white" stop-opacity="0"/>
</linearGradient>
</defs>
</svg>
